<svg id="Layer_1" data-name="Layer 1" xmlns="http://www.w3.org/2000/svg" xmlns:xlink="http://www.w3.org/1999/xlink" viewBox="0 0 43.59 14.73"><defs><style>.cls-1{fill:none;}.cls-2{isolation:isolate;}.cls-3{clip-path:url(#clip-path);}.cls-4{fill:#949494;}.cls-5{fill:#8f8f8f;}.cls-6{fill:#8a8a8a;}.cls-7{clip-path:url(#clip-path-2);}.cls-8{fill:#9e9e9e;}.cls-9{fill:#a3a3a3;}.cls-10{fill:#a8a8a8;}.cls-11{fill:#999;}.cls-12{clip-path:url(#clip-path-3);}.cls-13{fill:#858585;}.cls-14{clip-path:url(#clip-path-4);}.cls-15{clip-path:url(#clip-path-5);}.cls-16{clip-path:url(#clip-path-6);}.cls-17{clip-path:url(#clip-path-7);}.cls-18{clip-path:url(#clip-path-8);}.cls-19{clip-path:url(#clip-path-9);}.cls-20{clip-path:url(#clip-path-10);}.cls-21{clip-path:url(#clip-path-11);}.cls-22{clip-path:url(#clip-path-12);}.cls-23{clip-path:url(#clip-path-13);}.cls-24{fill:#dfdfdf;}.cls-25{clip-path:url(#clip-path-14);}.cls-26{clip-path:url(#clip-path-15);}.cls-27{clip-path:url(#clip-path-16);}.cls-28{clip-path:url(#clip-path-17);}.cls-29{clip-path:url(#clip-path-18);}.cls-30{clip-path:url(#clip-path-19);}.cls-31{clip-path:url(#clip-path-20);}.cls-32{fill:gray;}.cls-33{clip-path:url(#clip-path-21);}.cls-34{clip-path:url(#clip-path-22);}.cls-35{clip-path:url(#clip-path-23);}.cls-36{clip-path:url(#clip-path-24);}.cls-37{clip-path:url(#clip-path-25);}.cls-38{clip-path:url(#clip-path-26);}.cls-39{clip-path:url(#clip-path-27);}.cls-40{clip-path:url(#clip-path-28);}.cls-41{clip-path:url(#clip-path-29);}.cls-42{clip-path:url(#clip-path-30);}.cls-43{clip-path:url(#clip-path-31);}.cls-44{clip-path:url(#clip-path-32);}.cls-45{clip-path:url(#clip-path-33);}.cls-46{clip-path:url(#clip-path-34);}.cls-47{clip-path:url(#clip-path-35);}.cls-48{clip-path:url(#clip-path-36);}.cls-49{clip-path:url(#clip-path-37);}.cls-50{clip-path:url(#clip-path-38);}.cls-51{clip-path:url(#clip-path-39);}.cls-52{clip-path:url(#clip-path-40);}.cls-53{clip-path:url(#clip-path-41);}.cls-54{clip-path:url(#clip-path-42);}.cls-55{clip-path:url(#clip-path-43);}.cls-56{clip-path:url(#clip-path-44);}.cls-57{clip-path:url(#clip-path-45);}.cls-58{clip-path:url(#clip-path-46);}.cls-59{clip-path:url(#clip-path-47);}.cls-60{clip-path:url(#clip-path-48);}.cls-61{clip-path:url(#clip-path-49);}.cls-62{clip-path:url(#clip-path-50);}.cls-63{clip-path:url(#clip-path-51);}.cls-64{clip-path:url(#clip-path-52);}.cls-65{clip-path:url(#clip-path-53);}.cls-66{clip-path:url(#clip-path-54);}.cls-67{clip-path:url(#clip-path-55);}.cls-68{clip-path:url(#clip-path-56);}.cls-69{clip-path:url(#clip-path-57);}.cls-70{clip-path:url(#clip-path-58);}.cls-71{clip-path:url(#clip-path-59);}.cls-72{clip-path:url(#clip-path-60);}.cls-73{clip-path:url(#clip-path-61);}.cls-74{clip-path:url(#clip-path-62);}.cls-75{clip-path:url(#clip-path-63);}.cls-76{clip-path:url(#clip-path-64);}.cls-77{clip-path:url(#clip-path-65);}.cls-78{clip-path:url(#clip-path-66);}.cls-79{clip-path:url(#clip-path-67);}.cls-80{clip-path:url(#clip-path-68);}.cls-81{clip-path:url(#clip-path-69);}.cls-82{clip-path:url(#clip-path-70);}.cls-83{clip-path:url(#clip-path-71);}.cls-84{clip-path:url(#clip-path-72);}.cls-85{clip-path:url(#clip-path-73);}.cls-86{clip-path:url(#clip-path-74);}.cls-87{clip-path:url(#clip-path-75);}.cls-88{clip-path:url(#clip-path-76);}.cls-89{fill:#adadad;}.cls-90{clip-path:url(#clip-path-77);}.cls-91{clip-path:url(#clip-path-78);}.cls-92{clip-path:url(#clip-path-79);}.cls-93{clip-path:url(#clip-path-80);}.cls-94{clip-path:url(#clip-path-81);}.cls-95{clip-path:url(#clip-path-82);}.cls-96{clip-path:url(#clip-path-83);}.cls-97{clip-path:url(#clip-path-84);}.cls-98{clip-path:url(#clip-path-85);}.cls-99{clip-path:url(#clip-path-86);}.cls-100{clip-path:url(#clip-path-87);}</style><clipPath id="clip-path" transform="translate(-3.52 -1)"><path class="cls-1" d="M46.07,8.66l-1.36-.75a7.22,7.22,0,0,0,.93-1.47L47,7.19A7.34,7.34,0,0,1,46.07,8.66Z"/></clipPath><clipPath id="clip-path-2" transform="translate(-3.52 -1)"><path class="cls-1" d="M45.11,9.22l-1.37-.75a.27.27,0,0,0,.18,0,1.64,1.64,0,0,0,.79-.59l1.36.75a1.61,1.61,0,0,1-.78.58A.35.35,0,0,1,45.11,9.22Z"/></clipPath><clipPath id="clip-path-3" transform="translate(-3.52 -1)"><path class="cls-1" d="M44.55,9.62l-1.36-.75a.45.45,0,0,1-.14-.1l1.37.74A.69.69,0,0,0,44.55,9.62Z"/></clipPath><clipPath id="clip-path-4" transform="translate(-3.52 -1)"><path class="cls-1" d="M45.12,6.86l-1.36-.74a.71.71,0,0,1,.28.06l1.37.75A1,1,0,0,0,45.12,6.86Z"/></clipPath><clipPath id="clip-path-5" transform="translate(-3.52 -1)"><path class="cls-1" d="M44.09,6.2,45.46,7l-.05,0L44,6.18Z"/></clipPath><clipPath id="clip-path-6" transform="translate(-3.52 -1)"><path class="cls-1" d="M44.42,9.51l-1.37-.74a.73.73,0,0,1-.19-.55,1.39,1.39,0,0,1,0-.33l1.37.75a1.35,1.35,0,0,0,0,.33A.77.77,0,0,0,44.42,9.51Z"/></clipPath><clipPath id="clip-path-7" transform="translate(-3.52 -1)"><path class="cls-1" d="M45.27,6.7,43.9,6A2,2,0,0,0,44,5.54a.75.75,0,0,0-.13-.45l1.37.74a.75.75,0,0,1,.13.45A3.53,3.53,0,0,1,45.27,6.7Z"/></clipPath><clipPath id="clip-path-8" transform="translate(-3.52 -1)"><path class="cls-1" d="M43.73,5l1.37.74a.39.39,0,0,1,.1.08l-1.37-.74A.39.39,0,0,0,43.73,5Z"/></clipPath><clipPath id="clip-path-9" transform="translate(-3.52 -1)"><path class="cls-1" d="M42.73,9.66l-1.37-.74a.24.24,0,0,0,.15,0c.28,0,.62-.33,1-.87s.8-1.19,1.25-1.95l1.36.74c-.44.76-.86,1.42-1.24,2s-.72.83-1,.86A.19.19,0,0,1,42.73,9.66Z"/></clipPath><clipPath id="clip-path-10" transform="translate(-3.52 -1)"><path class="cls-1" d="M44.06,4.74l1.37.75a.94.94,0,0,0-.61-.09l-1.37-.74A.94.94,0,0,1,44.06,4.74Z"/></clipPath><clipPath id="clip-path-11" transform="translate(-3.52 -1)"><path class="cls-1" d="M44.79,5.4l-1.36-.74h0l1.37.74Z"/></clipPath><clipPath id="clip-path-12" transform="translate(-3.52 -1)"><path class="cls-1" d="M42.21,10.13l-1.37-.75a.45.45,0,0,1-.14-.1.94.94,0,0,1-.22-.68,1.8,1.8,0,0,1,0-.22,2.51,2.51,0,0,1,.11-.56,5.67,5.67,0,0,1,.33-.8A5.82,5.82,0,0,1,42.1,5.43a2.47,2.47,0,0,1,1.33-.77l1.36.74a2.55,2.55,0,0,0-1.32.77,5.82,5.82,0,0,0-1.16,1.59,5.67,5.67,0,0,0-.33.8,3.23,3.23,0,0,0-.12.57c0,.07,0,.14,0,.21a.88.88,0,0,0,.22.68A.49.49,0,0,0,42.21,10.13Z"/></clipPath><clipPath id="clip-path-13" transform="translate(-3.52 -1)"><path class="cls-1" d="M41.52,9.24l-1.36-.75a5.22,5.22,0,0,0,.45-.67L42,8.56A5.4,5.4,0,0,1,41.52,9.24Z"/></clipPath><clipPath id="clip-path-14" transform="translate(-3.52 -1)"><path class="cls-1" d="M40.5,9.88l-1.37-.74a.31.31,0,0,0,.17,0,1.65,1.65,0,0,0,.86-.67l1.36.75c-.33.4-.61.63-.85.66A.31.31,0,0,1,40.5,9.88Z"/></clipPath><clipPath id="clip-path-15" transform="translate(-3.52 -1)"><path class="cls-1" d="M40,10.18l-1.36-.74-.11-.08,1.37.75Z"/></clipPath><clipPath id="clip-path-16" transform="translate(-3.52 -1)"><path class="cls-1" d="M39.87,10.11,38.5,9.36a.65.65,0,0,1-.19-.5A3.61,3.61,0,0,1,38.48,8l1.37.74a3.66,3.66,0,0,0-.17.84A.63.63,0,0,0,39.87,10.11Z"/></clipPath><clipPath id="clip-path-17" transform="translate(-3.52 -1)"><path class="cls-1" d="M39.85,8.77,38.48,8a3.87,3.87,0,0,0,.17-.95.58.58,0,0,0-.11-.4l1.37.74a.6.6,0,0,1,.11.4A4.43,4.43,0,0,1,39.85,8.77Z"/></clipPath><clipPath id="clip-path-18" transform="translate(-3.52 -1)"><path class="cls-1" d="M38.46,6.61l1.37.74.08.07-1.37-.74A.27.27,0,0,0,38.46,6.61Z"/></clipPath><clipPath id="clip-path-19" transform="translate(-3.52 -1)"><path class="cls-1" d="M39.06,5.89l1.37.75A.65.65,0,0,0,40,6.58a1.82,1.82,0,0,0-1.21,1,10.72,10.72,0,0,0-1,2.3l-1.36-.75a10.14,10.14,0,0,1,1-2.29,1.83,1.83,0,0,1,1.2-1A.7.7,0,0,1,39.06,5.89Z"/></clipPath><clipPath id="clip-path-20" transform="translate(-3.52 -1)"><path class="cls-1" d="M38.35,6.68,37,5.94a5.63,5.63,0,0,0,.92-1.26,11.79,11.79,0,0,0,.75-1.58A3.71,3.71,0,0,0,39,2l1.37.75A3.79,3.79,0,0,1,40,3.85a10.22,10.22,0,0,1-.76,1.57A5.4,5.4,0,0,1,38.35,6.68Z"/></clipPath><clipPath id="clip-path-21" transform="translate(-3.52 -1)"><path class="cls-1" d="M37.43,10.77,36.06,10a.52.52,0,0,1-.2-.3,2.45,2.45,0,0,1-.12-.82,3.4,3.4,0,0,1,0-.53,4,4,0,0,1,.07-.46A15.86,15.86,0,0,1,36.36,6a24.54,24.54,0,0,1,1.38-3.4C38.26,1.57,38.66,1,39,1a.19.19,0,0,1,.13,0l1.37.74a.3.3,0,0,0-.13,0c-.31.05-.71.57-1.23,1.58a23.88,23.88,0,0,0-1.39,3.39,15.86,15.86,0,0,0-.51,2c0,.16-.05.32-.07.46a5.17,5.17,0,0,0,0,.54,2.45,2.45,0,0,0,.12.82A.45.45,0,0,0,37.43,10.77Z"/></clipPath><clipPath id="clip-path-22" transform="translate(-3.52 -1)"><path class="cls-1" d="M35.38,8.51a1.47,1.47,0,0,0,.47-.59l1.36.74a1.42,1.42,0,0,1-.46.6Z"/></clipPath><clipPath id="clip-path-23" transform="translate(-3.52 -1)"><path class="cls-1" d="M35.7,9.49l-1.37-.74a.72.72,0,0,0,.41.05,1.35,1.35,0,0,0,.64-.29l1.37.75a1.35,1.35,0,0,1-.64.29A.73.73,0,0,1,35.7,9.49Z"/></clipPath><clipPath id="clip-path-24" transform="translate(-3.52 -1)"><path class="cls-1" d="M35.46,9.32l-1.37-.75a5.73,5.73,0,0,0,.45-1l1.37.75A6.1,6.1,0,0,1,35.46,9.32Z"/></clipPath><clipPath id="clip-path-25" transform="translate(-3.52 -1)"><path class="cls-1" d="M34.65,10.4l-1.37-.74a4.5,4.5,0,0,0,.61-.76l1.37.75A4.4,4.4,0,0,1,34.65,10.4Z"/></clipPath><clipPath id="clip-path-26" transform="translate(-3.52 -1)"><path class="cls-1" d="M35.91,8.34l-1.37-.75a2.51,2.51,0,0,0,.17-.87,1,1,0,0,0-.08-.48L36,7a.81.81,0,0,1,.09.47A2.83,2.83,0,0,1,35.91,8.34Z"/></clipPath><clipPath id="clip-path-27" transform="translate(-3.52 -1)"><path class="cls-1" d="M33.93,10.7,32.57,10a.27.27,0,0,0,.18,0,1.11,1.11,0,0,0,.53-.32l1.37.74a1.14,1.14,0,0,1-.53.33A.31.31,0,0,1,33.93,10.7Z"/></clipPath><clipPath id="clip-path-28" transform="translate(-3.52 -1)"><path class="cls-1" d="M35.26,9.65,33.89,8.9a1.42,1.42,0,0,1-.45-.63L34.81,9A1.51,1.51,0,0,0,35.26,9.65Z"/></clipPath><clipPath id="clip-path-29" transform="translate(-3.52 -1)"><path class="cls-1" d="M34.52,6.13l1.37.75A.18.18,0,0,1,36,7l-1.36-.75A.29.29,0,0,0,34.52,6.13Z"/></clipPath><clipPath id="clip-path-30" transform="translate(-3.52 -1)"><path class="cls-1" d="M34.78,5.86l1.37.75a.74.74,0,0,0-.46-.06,1,1,0,0,0-.76.54l-1.37-.75a1,1,0,0,1,.76-.53A.74.74,0,0,1,34.78,5.86Z"/></clipPath><clipPath id="clip-path-31" transform="translate(-3.52 -1)"><path class="cls-1" d="M34.81,9l-1.37-.74a2.27,2.27,0,0,1-.17-.86,2,2,0,0,1,.29-1.07l1.37.75a2,2,0,0,0-.29,1.06A2.06,2.06,0,0,0,34.81,9Z"/></clipPath><clipPath id="clip-path-32" transform="translate(-3.52 -1)"><path class="cls-1" d="M33.7,8.35,32.33,7.6a1,1,0,0,1,.58-.42,1,1,0,0,1,.23,0L34.5,8a.6.6,0,0,0-.22,0A.94.94,0,0,0,33.7,8.35Z"/></clipPath><clipPath id="clip-path-33" transform="translate(-3.52 -1)"><path class="cls-1" d="M33.4,11.16,32,10.42a.65.65,0,0,1-.16-.13,1.21,1.21,0,0,1-.2-.74c0-.05,0-.1,0-.16a2.71,2.71,0,0,1,.12-.66l.06-.2a3.38,3.38,0,0,1,.47-.93l1.37.75a3.38,3.38,0,0,0-.47.93.66.66,0,0,0-.06.2,2.71,2.71,0,0,0-.12.66.86.86,0,0,0,0,.16,1.13,1.13,0,0,0,.2.73A.4.4,0,0,0,33.4,11.16Z"/></clipPath><clipPath id="clip-path-34" transform="translate(-3.52 -1)"><path class="cls-1" d="M31.7,11.06l-1.37-.75c.5-.07,1-.6,1.47-1.58l1.37.75C32.68,10.46,32.2,11,31.7,11.06Z"/></clipPath><clipPath id="clip-path-35" transform="translate(-3.52 -1)"><path class="cls-1" d="M31.37,11,30,10.28a.54.54,0,0,0,.32,0l1.37.75A.49.49,0,0,1,31.37,11Z"/></clipPath><clipPath id="clip-path-36" transform="translate(-3.52 -1)"><path class="cls-1" d="M30,7.15c.25-.43.48-.66.7-.69l1.37.74c-.22,0-.46.26-.7.7a7.14,7.14,0,0,0-.6,1.48c0,.1-.06.19-.08.29a6,6,0,0,0-.15.67c0,.12,0,.23,0,.32a1,1,0,0,0,.21.66.48.48,0,0,0,.16.13l-1.37-.74-.16-.13a1,1,0,0,1-.21-.66,1.91,1.91,0,0,1,0-.32,4.58,4.58,0,0,1,.14-.68c0-.09.05-.18.08-.28A7.24,7.24,0,0,1,30,7.15Z"/></clipPath><clipPath id="clip-path-37" transform="translate(-3.52 -1)"><path class="cls-1" d="M28.87,9.66a3.91,3.91,0,0,0,.45-.74l1.37.75a4.68,4.68,0,0,1-.45.74Z"/></clipPath><clipPath id="clip-path-38" transform="translate(-3.52 -1)"><path class="cls-1" d="M29.16,10.87l-1.37-.74a1.26,1.26,0,0,0,.27,0,1.2,1.2,0,0,0,.81-.46l1.37.75a1.19,1.19,0,0,1-1.08.46Z"/></clipPath><clipPath id="clip-path-39" transform="translate(-3.52 -1)"><path class="cls-1" d="M28.2,11.78,26.83,11a2.47,2.47,0,0,0,.54-.78l1.37.75A2.54,2.54,0,0,1,28.2,11.78Z"/></clipPath><clipPath id="clip-path-40" transform="translate(-3.52 -1)"><path class="cls-1" d="M27.29,12.1l-1.37-.74a.48.48,0,0,0,.27,0,1.27,1.27,0,0,0,.64-.36l1.37.74a1.2,1.2,0,0,1-.64.36A.46.46,0,0,1,27.29,12.1Z"/></clipPath><clipPath id="clip-path-41" transform="translate(-3.52 -1)"><path class="cls-1" d="M28.84,10.76,27.48,10a3.14,3.14,0,0,0,.25-1.19,1.51,1.51,0,0,0-.1-.62L29,9a1.67,1.67,0,0,1,.09.61A3,3,0,0,1,28.84,10.76Z"/></clipPath><clipPath id="clip-path-42" transform="translate(-3.52 -1)"><path class="cls-1" d="M27.49,8l1.36.74A.35.35,0,0,1,29,9L27.63,8.2A.31.31,0,0,0,27.49,8Z"/></clipPath><clipPath id="clip-path-43" transform="translate(-3.52 -1)"><path class="cls-1" d="M27.81,7.59l1.37.74a.54.54,0,0,0-.32-.05,1,1,0,0,0-.63.43L26.86,8a.91.91,0,0,1,.64-.43A.46.46,0,0,1,27.81,7.59Z"/></clipPath><clipPath id="clip-path-44" transform="translate(-3.52 -1)"><path class="cls-1" d="M28.63,11l-1.36-.75a1.12,1.12,0,0,1-.47-.49,1.68,1.68,0,0,1-.2-.84A1.55,1.55,0,0,1,26.86,8l1.37.74a1.61,1.61,0,0,0-.27.92,1.76,1.76,0,0,0,.2.83A1.26,1.26,0,0,0,28.63,11Z"/></clipPath><clipPath id="clip-path-45" transform="translate(-3.52 -1)"><path class="cls-1" d="M27.62,8.16l-1.37-.74a5.71,5.71,0,0,0,.91-1.26,10.31,10.31,0,0,0,.76-1.58,3.75,3.75,0,0,0,.3-1.07l1.36.74a3.59,3.59,0,0,1-.29,1.08,11.24,11.24,0,0,1-.76,1.57A5.71,5.71,0,0,1,27.62,8.16Z"/></clipPath><clipPath id="clip-path-46" transform="translate(-3.52 -1)"><path class="cls-1" d="M26.76,12.52l-1.37-.74a.69.69,0,0,1-.22-.2,1.55,1.55,0,0,1-.28-1,10.66,10.66,0,0,1,.65-3A23.68,23.68,0,0,1,27,4.08c.53-1,.94-1.56,1.23-1.6a.23.23,0,0,1,.12,0l1.37.75a.19.19,0,0,0-.13,0c-.29,0-.69.58-1.23,1.6a24.18,24.18,0,0,0-1.46,3.45,10.73,10.73,0,0,0-.65,3,1.67,1.67,0,0,0,.27,1A.83.83,0,0,0,26.76,12.52Z"/></clipPath><clipPath id="clip-path-47" transform="translate(-3.52 -1)"><path class="cls-1" d="M21.63,13l-1.37-.74a1.07,1.07,0,0,0,.68.09,2.61,2.61,0,0,0,1.74-1.24,9.15,9.15,0,0,0,1.24-2.69,10.89,10.89,0,0,0,.47-3l1.36.74a10.39,10.39,0,0,1-.46,3A9,9,0,0,1,24,11.82a2.64,2.64,0,0,1-1.74,1.25A1.05,1.05,0,0,1,21.63,13Z"/></clipPath><clipPath id="clip-path-48" transform="translate(-3.52 -1)"><path class="cls-1" d="M21,13.36l-1.37-.75-.1,0,1.37.74Z"/></clipPath><clipPath id="clip-path-49" transform="translate(-3.52 -1)"><path class="cls-1" d="M24,3.92l1.37.74a.61.61,0,0,1,.23.43,4,4,0,0,1,.11,1.07l-1.36-.74a5.2,5.2,0,0,0-.11-1.08Q24.19,4,24,3.92Z"/></clipPath><clipPath id="clip-path-50" transform="translate(-3.52 -1)"><path class="cls-1" d="M23.56,7.22l-1.37-.74-.11-.08,1.36.74A.5.5,0,0,0,23.56,7.22Z"/></clipPath><clipPath id="clip-path-51" transform="translate(-3.52 -1)"><path class="cls-1" d="M24.23,3.64l1.37.74a.55.55,0,0,0-.34,0,1.62,1.62,0,0,0-.8.49,5,5,0,0,0-.8,1,2.13,2.13,0,0,0-.34,1,.46.46,0,0,0,.12.33L22.08,6.4A.49.49,0,0,1,22,6.06a2,2,0,0,1,.35-1,4.48,4.48,0,0,1,.79-1,1.67,1.67,0,0,1,.8-.49A.55.55,0,0,1,24.23,3.64Z"/></clipPath><clipPath id="clip-path-52" transform="translate(-3.52 -1)"><path class="cls-1" d="M24.39,3.88,23,3.14a1.26,1.26,0,0,1,.64,0L25,3.94A1.15,1.15,0,0,0,24.39,3.88Z"/></clipPath><clipPath id="clip-path-53" transform="translate(-3.52 -1)"><path class="cls-1" d="M20.91,13.3l-1.37-.74a1.82,1.82,0,0,1-.72-.91,3.7,3.7,0,0,1-.24-1.12c0-.11,0-.22,0-.33a8.07,8.07,0,0,1,.69-3.06A9.56,9.56,0,0,1,21,4.41a3.57,3.57,0,0,1,2-1.27l1.37.74a3.65,3.65,0,0,0-2,1.27,9.85,9.85,0,0,0-1.72,2.73,7.93,7.93,0,0,0-.69,3.06c0,.12,0,.23,0,.33a3.76,3.76,0,0,0,.24,1.13A1.79,1.79,0,0,0,20.91,13.3Z"/></clipPath><clipPath id="clip-path-54" transform="translate(-3.52 -1)"><path class="cls-1" d="M18.42,12.92l-1.37-.74h0a1.26,1.26,0,0,0,.74-.62,10.23,10.23,0,0,0,.74-1.38l1.37.74a8.87,8.87,0,0,1-.75,1.39,1.22,1.22,0,0,1-.73.61Z"/></clipPath><clipPath id="clip-path-55" transform="translate(-3.52 -1)"><path class="cls-1" d="M18.24,12.9l-1.37-.74a.35.35,0,0,0,.18,0l1.37.74A.27.27,0,0,1,18.24,12.9Z"/></clipPath><clipPath id="clip-path-56" transform="translate(-3.52 -1)"><path class="cls-1" d="M16.36,12.46l-.1-.07,1.37.74.1.07Z"/></clipPath><clipPath id="clip-path-57" transform="translate(-3.52 -1)"><path class="cls-1" d="M17.63,13.13l-1.37-.74a.66.66,0,0,1-.19-.51,1.81,1.81,0,0,1,.05-.36c0-.14.06-.27.1-.41l1.37.75c0,.13-.07.27-.1.41a1.22,1.22,0,0,0,0,.35A.63.63,0,0,0,17.63,13.13Z"/></clipPath><clipPath id="clip-path-58" transform="translate(-3.52 -1)"><path class="cls-1" d="M16.2,9.76l1.37.75c.12.06.18.22.18.47a1.7,1.7,0,0,1-.05.42c0,.16-.07.31-.11.46l-1.37-.75q.06-.21.12-.45a2.45,2.45,0,0,0,0-.43C16.38,10,16.32,9.83,16.2,9.76Z"/></clipPath><clipPath id="clip-path-59" transform="translate(-3.52 -1)"><path class="cls-1" d="M16.8,9l1.37.74a.7.7,0,0,0-.42-.06L16.39,9A.68.68,0,0,1,16.8,9Z"/></clipPath><clipPath id="clip-path-60" transform="translate(-3.52 -1)"><path class="cls-1" d="M15.53,12.06l-1.37-.75a9,9,0,0,1,1.1-1.58A1.86,1.86,0,0,1,16.39,9l1.36.74a2,2,0,0,0-1.13.75A9.19,9.19,0,0,0,15.53,12.06Z"/></clipPath><clipPath id="clip-path-61" transform="translate(-3.52 -1)"><path class="cls-1" d="M14.33,13.48,13,12.74a2.48,2.48,0,0,1,.14-.44l.15-.43c.09-.29.18-.57.25-.83,0,0,0-.09,0-.14a4.53,4.53,0,0,0,.19-1.11l1.36.75a4,4,0,0,1-.18,1.1.83.83,0,0,0,0,.15c-.07.25-.16.53-.26.82a4.59,4.59,0,0,1-.15.44A3.14,3.14,0,0,0,14.33,13.48Z"/></clipPath><clipPath id="clip-path-62" transform="translate(-3.52 -1)"><path class="cls-1" d="M13.87,13.21l-1.37-.75a5.25,5.25,0,0,0,1-1.42l1.37.75A5.58,5.58,0,0,1,13.87,13.21Z"/></clipPath><clipPath id="clip-path-63" transform="translate(-3.52 -1)"><path class="cls-1" d="M14.4,9.5l1.37.75a.25.25,0,0,0-.18,0,.66.66,0,0,0-.28.11,1.09,1.09,0,0,0-.22.2l-1.36-.75a1.37,1.37,0,0,1,.21-.19.74.74,0,0,1,.28-.12A.32.32,0,0,1,14.4,9.5Z"/></clipPath><clipPath id="clip-path-64" transform="translate(-3.52 -1)"><path class="cls-1" d="M12.05,13.92l-1.37-.74a.79.79,0,0,0,.5.06,2.35,2.35,0,0,0,1.32-.78l1.37.75a2.39,2.39,0,0,1-1.32.77A.78.78,0,0,1,12.05,13.92Z"/></clipPath><clipPath id="clip-path-65" transform="translate(-3.52 -1)"><path class="cls-1" d="M12.5,9.12l1.37.75,0,0a.32.32,0,0,1,0,.2l-1.37-.75a.26.26,0,0,0-.05-.19Z"/></clipPath><clipPath id="clip-path-66" transform="translate(-3.52 -1)"><path class="cls-1" d="M12.75,11.86l-1.36-.74a4.82,4.82,0,0,0,.84-.85,1.63,1.63,0,0,0,.35-.93l1.37.75a1.63,1.63,0,0,1-.35.93A4.23,4.23,0,0,1,12.75,11.86Z"/></clipPath><clipPath id="clip-path-67" transform="translate(-3.52 -1)"><path class="cls-1" d="M11.81,12.48l-1.36-.75a6.73,6.73,0,0,0,.94-.61l1.36.74A6.31,6.31,0,0,1,11.81,12.48Z"/></clipPath><clipPath id="clip-path-68" transform="translate(-3.52 -1)"><path class="cls-1" d="M11.55,14.24l-1.37-.74a.62.62,0,0,1-.18-.14,1.2,1.2,0,0,1-.34-.92,3.61,3.61,0,0,1,.42-1.52,5.22,5.22,0,0,1,1.06-1.46,2.24,2.24,0,0,1,1.25-.71.66.66,0,0,1,.41,0l1.37.75a.66.66,0,0,0-.41,0,2.34,2.34,0,0,0-1.25.71,5.52,5.52,0,0,0-1.06,1.46A3.47,3.47,0,0,0,11,13.18a1.26,1.26,0,0,0,.33.93A.8.8,0,0,0,11.55,14.24Z"/></clipPath><clipPath id="clip-path-69" transform="translate(-3.52 -1)"><path class="cls-1" d="M8.35,9.89l1.37.74a1,1,0,0,1,.49.93l-1.37-.74A1,1,0,0,0,8.35,9.89Z"/></clipPath><clipPath id="clip-path-70" transform="translate(-3.52 -1)"><path class="cls-1" d="M5.94,14.88l-1.37-.74a6.35,6.35,0,0,0,2.17-.69,4.73,4.73,0,0,0,1.54-1.23,2.37,2.37,0,0,0,.56-1.4l1.37.74A2.36,2.36,0,0,1,9.64,13,4.5,4.5,0,0,1,8.1,14.19,6.37,6.37,0,0,1,5.94,14.88Z"/></clipPath><clipPath id="clip-path-71" transform="translate(-3.52 -1)"><path class="cls-1" d="M8.65,9.68l1.37.74a3.25,3.25,0,0,0-1.74-.24L6.91,9.44A3.15,3.15,0,0,1,8.65,9.68Z"/></clipPath><clipPath id="clip-path-72" transform="translate(-3.52 -1)"><path class="cls-1" d="M5.21,15.62l-1.37-.74,0,0,1.37.75Z"/></clipPath><clipPath id="clip-path-73" transform="translate(-3.52 -1)"><path class="cls-1" d="M5.2,14.93l-1.37-.75a3.6,3.6,0,0,0,.74,0l1.37.74A3.83,3.83,0,0,1,5.2,14.93Z"/></clipPath><clipPath id="clip-path-74" transform="translate(-3.52 -1)"><path class="cls-1" d="M5.36,14.39,4,13.65l-.08-.05,1.37.74Z"/></clipPath><clipPath id="clip-path-75" transform="translate(-3.52 -1)"><path class="cls-1" d="M4.94,14.9l-1.37-.74.26,0,1.37.75Z"/></clipPath><clipPath id="clip-path-76" transform="translate(-3.52 -1)"><path class="cls-1" d="M5.18,15.61l-1.37-.75a.68.68,0,0,1-.29-.66L4.88,15A.71.71,0,0,0,5.18,15.61Z"/></clipPath><clipPath id="clip-path-77" transform="translate(-3.52 -1)"><path class="cls-1" d="M5.29,14.34,3.92,13.6a.43.43,0,0,1-.18-.36L5.11,14A.4.4,0,0,0,5.29,14.34Z"/></clipPath><clipPath id="clip-path-78" transform="translate(-3.52 -1)"><path class="cls-1" d="M5.11,14l-1.37-.74a2.22,2.22,0,0,1,.07-.38l1.37.74A1.63,1.63,0,0,0,5.11,14Z"/></clipPath><clipPath id="clip-path-79" transform="translate(-3.52 -1)"><path class="cls-1" d="M5.18,13.6l-1.37-.74c0-.16.07-.26.08-.3l1.37.74S5.22,13.45,5.18,13.6Z"/></clipPath><clipPath id="clip-path-80" transform="translate(-3.52 -1)"><path class="cls-1" d="M8.18,5.72l1.37.75a1.14,1.14,0,0,1,.54,1.11,2.16,2.16,0,0,1-1,1.84,5.57,5.57,0,0,1-2.34.9L5.41,9.58a5.65,5.65,0,0,0,2.34-.91,2.13,2.13,0,0,0,1-1.83A1.15,1.15,0,0,0,8.18,5.72Z"/></clipPath><clipPath id="clip-path-81" transform="translate(-3.52 -1)"><path class="cls-1" d="M5.26,13.3l-1.37-.74c.23-.83.57-2,1-3.34A34,34,0,0,1,6.19,5.78l1.37.74A35.89,35.89,0,0,0,6.28,10C5.83,11.36,5.49,12.48,5.26,13.3Z"/></clipPath><clipPath id="clip-path-82" transform="translate(-3.52 -1)"><path class="cls-1" d="M8.77,5.57l1.37.75L10,6.25a3.54,3.54,0,0,0-1.72-.16A4.83,4.83,0,0,0,7,6.44L5.61,5.7A4.57,4.57,0,0,1,6.9,5.35a3.52,3.52,0,0,1,1.72.16Z"/></clipPath><clipPath id="clip-path-83" transform="translate(-3.52 -1)"><path class="cls-1" d="M5.94,7.31,4.58,6.57,4.5,6.52l1.37.74Z"/></clipPath><clipPath id="clip-path-84" transform="translate(-3.52 -1)"><path class="cls-1" d="M5.74,7.08,4.37,6.34A9.92,9.92,0,0,1,5.61,5.7L7,6.44A11.49,11.49,0,0,0,5.74,7.08Z"/></clipPath><clipPath id="clip-path-85" transform="translate(-3.52 -1)"><path class="cls-1" d="M5.87,7.26,4.5,6.52c-.09-.07-.13-.13-.13-.18l1.37.74A.25.25,0,0,0,5.87,7.26Z"/></clipPath><clipPath id="clip-path-86" transform="translate(-3.52 -1)"><path class="cls-1" d="M32.36,6,31,5.27l0,0L32.33,6Z"/></clipPath><clipPath id="clip-path-87" transform="translate(-3.52 -1)"><path class="cls-1" d="M31.84,4.31l1.37.74A.38.38,0,0,0,33,5a1,1,0,0,0-.52.26.6.6,0,0,0-.26.45.3.3,0,0,0,.12.27L31,5.25A.28.28,0,0,1,30.84,5a.6.6,0,0,1,.26-.45,1,1,0,0,1,.52-.26A.37.37,0,0,1,31.84,4.31Z"/></clipPath></defs><title>logo</title><g class="cls-2"><g class="cls-2"><g class="cls-3"><g class="cls-2"><path class="cls-4" d="M46.07,8.66l-1.36-.75A2.92,2.92,0,0,0,45,7.53l1.37.74q-.15.21-.3.39" transform="translate(-3.52 -1)"/><path class="cls-5" d="M46.37,8.27,45,7.53a7.82,7.82,0,0,0,.48-.79l1.37.75a8.88,8.88,0,0,1-.48.78" transform="translate(-3.52 -1)"/><path class="cls-6" d="M46.85,7.49l-1.37-.75c.05-.09.11-.19.16-.3L47,7.19c-.06.1-.11.2-.16.3" transform="translate(-3.52 -1)"/></g></g></g><g class="cls-2"><g class="cls-7"><g class="cls-2"><polyline class="cls-8" points="41.6 8.22 40.23 7.47 40.24 7.48 41.6 8.22 41.6 8.22"/><path class="cls-9" d="M45.12,9.22l-1.37-.74h0l1.37.75-.05,0" transform="translate(-3.52 -1)"/><path class="cls-10" d="M45.17,9.24,43.8,8.49h.12l.16-.05,1.36.74a.3.3,0,0,1-.15.05h-.12" transform="translate(-3.52 -1)"/><path class="cls-9" d="M45.44,9.19l-1.36-.74.14-.09,1.37.75-.15.08" transform="translate(-3.52 -1)"/><path class="cls-8" d="M45.59,9.11l-1.37-.75.19-.15L45.78,9l-.19.15" transform="translate(-3.52 -1)"/><path class="cls-11" d="M45.78,9l-1.37-.75a4.22,4.22,0,0,0,.3-.3l1.36.75-.29.3" transform="translate(-3.52 -1)"/></g></g></g><g class="cls-2"><g class="cls-12"><g class="cls-2"><path class="cls-13" d="M44.55,9.62l-1.36-.75a.45.45,0,0,1-.14-.1l1.37.74a.69.69,0,0,0,.13.11" transform="translate(-3.52 -1)"/></g></g></g><g class="cls-2"><g class="cls-14"><g class="cls-2"><path class="cls-10" d="M45.12,6.86l-1.36-.74.17,0,1.37.75a.57.57,0,0,0-.18,0" transform="translate(-3.52 -1)"/><path class="cls-9" d="M45.3,6.89l-1.37-.75.11,0,1.37.75-.11,0" transform="translate(-3.52 -1)"/></g></g></g><g class="cls-2"><g class="cls-15"><g class="cls-2"><path class="cls-9" d="M45.41,6.93,44,6.18l0,0,1.37.74h0" transform="translate(-3.52 -1)"/><path class="cls-8" d="M45.44,6.94,44.07,6.2h0L45.46,7h0" transform="translate(-3.52 -1)"/></g></g></g><g class="cls-2"><g class="cls-16"><g class="cls-2"><path class="cls-13" d="M44.42,9.51l-1.37-.74a.73.73,0,0,1-.19-.55,1.39,1.39,0,0,1,0-.33l1.37.75a1.35,1.35,0,0,0,0,.33.77.77,0,0,0,.2.54" transform="translate(-3.52 -1)"/></g></g></g><g class="cls-2"><g class="cls-17"><g class="cls-2"><path class="cls-13" d="M45.27,6.7,43.9,6A2,2,0,0,0,44,5.54a.75.75,0,0,0-.13-.45l1.37.74a.75.75,0,0,1,.13.45,3.53,3.53,0,0,1-.06.42" transform="translate(-3.52 -1)"/></g></g></g><g class="cls-2"><g class="cls-18"><g class="cls-2"><path class="cls-13" d="M45.2,5.83l-1.37-.74a.39.39,0,0,0-.1-.08l1.37.74a.39.39,0,0,1,.1.08" transform="translate(-3.52 -1)"/></g></g></g><g class="cls-2"><g class="cls-19"><g class="cls-2"><polyline class="cls-8" points="39.21 8.67 37.84 7.92 37.85 7.93 39.22 8.67 39.21 8.67"/><path class="cls-9" d="M42.73,9.67l-1.36-.75,0,0,1.37.74h0" transform="translate(-3.52 -1)"/><path class="cls-10" d="M42.77,9.68,41.4,8.94h.11a.64.64,0,0,0,.18-.06l1.37.75a.49.49,0,0,1-.18,0h-.11" transform="translate(-3.52 -1)"/><path class="cls-9" d="M43.06,9.63l-1.37-.75.15-.08,1.37.74-.15.09" transform="translate(-3.52 -1)"/><path class="cls-8" d="M43.21,9.54,41.84,8.8,42,8.67l1.37.74a1.53,1.53,0,0,1-.16.13" transform="translate(-3.52 -1)"/><path class="cls-11" d="M43.37,9.41,42,8.67l.22-.22,1.36.74a1.49,1.49,0,0,1-.21.22" transform="translate(-3.52 -1)"/><path class="cls-4" d="M43.58,9.19l-1.36-.74a4.65,4.65,0,0,0,.29-.38l.09-.13L44,8.69l-.09.13a4,4,0,0,1-.3.37" transform="translate(-3.52 -1)"/><path class="cls-5" d="M44,8.69,42.6,7.94c.36-.51.75-1.12,1.16-1.82l1.36.74c-.4.7-.79,1.32-1.15,1.83" transform="translate(-3.52 -1)"/></g></g></g><g class="cls-2"><g class="cls-20"><g class="cls-2"><path class="cls-10" d="M44.82,5.4l-1.37-.74a1,1,0,0,1,.43,0l1.37.75a1,1,0,0,0-.43,0" transform="translate(-3.52 -1)"/><path class="cls-9" d="M45.25,5.42l-1.37-.75.15.06,1.37.74-.15,0" transform="translate(-3.52 -1)"/><path class="cls-8" d="M45.4,5.47,44,4.73h0l1.37.75,0,0" transform="translate(-3.52 -1)"/></g></g></g><g class="cls-2"><g class="cls-21"><g class="cls-2"><path class="cls-10" d="M44.79,5.4l-1.36-.74h0l1.37.74h0" transform="translate(-3.52 -1)"/></g></g></g><g class="cls-2"><g class="cls-22"><g class="cls-2"><path class="cls-13" d="M42.21,10.13l-1.37-.75a.45.45,0,0,1-.14-.1.94.94,0,0,1-.22-.68,1.8,1.8,0,0,1,0-.22,2.51,2.51,0,0,1,.11-.56l.08-.23,1.37.75a2,2,0,0,0-.08.22,3.23,3.23,0,0,0-.12.57c0,.07,0,.14,0,.21a.88.88,0,0,0,.22.68.49.49,0,0,0,.14.11" transform="translate(-3.52 -1)"/><path class="cls-6" d="M42.06,8.34l-1.37-.75c.07-.18.15-.37.25-.57L41,6.87l1.37.74-.08.15a5.64,5.64,0,0,0-.25.58" transform="translate(-3.52 -1)"/><path class="cls-5" d="M42.39,7.61,41,6.87a5.39,5.39,0,0,1,.38-.62L42.77,7a6.41,6.41,0,0,0-.38.62" transform="translate(-3.52 -1)"/><path class="cls-4" d="M42.77,7,41.4,6.25a5.08,5.08,0,0,1,.41-.51l1.36.74c-.14.16-.27.33-.4.51" transform="translate(-3.52 -1)"/><path class="cls-11" d="M43.17,6.48l-1.36-.74c.09-.11.19-.21.29-.31l.14-.13L43.61,6l-.14.13-.3.31" transform="translate(-3.52 -1)"/><path class="cls-8" d="M43.61,6,42.24,5.3A4.11,4.11,0,0,1,42.59,5L44,5.76a2.26,2.26,0,0,0-.35.28" transform="translate(-3.52 -1)"/><path class="cls-9" d="M44,5.76,42.59,5a2.57,2.57,0,0,1,.35-.2l1.37.74a3.24,3.24,0,0,0-.35.21" transform="translate(-3.52 -1)"/><path class="cls-10" d="M44.31,5.55l-1.37-.74a1.62,1.62,0,0,1,.49-.15l1.36.74a2.21,2.21,0,0,0-.48.15" transform="translate(-3.52 -1)"/></g></g></g><g class="cls-2"><g class="cls-23"><g class="cls-2"><path class="cls-4" d="M41.52,9.24l-1.36-.75.19-.26L41.72,9l-.2.27" transform="translate(-3.52 -1)"/><path class="cls-5" d="M41.72,9l-1.37-.74a3.54,3.54,0,0,0,.26-.41L42,8.56c-.08.14-.17.28-.26.41" transform="translate(-3.52 -1)"/></g></g></g><path class="cls-24" d="M44.79,5.4h0a.91.91,0,0,1,.7.15.67.67,0,0,1,.27.58.56.56,0,0,1-.14.4.71.71,0,0,1-.38.17,3.53,3.53,0,0,0,.06-.42.75.75,0,0,0-.13-.45.41.41,0,0,0-.4-.11h0a1.66,1.66,0,0,0-1,.7,6.34,6.34,0,0,0-.87,1.46,3.85,3.85,0,0,0-.35,1.4c0,.3.09.43.29.4s.61-.32,1-.86.8-1.2,1.24-2a1,1,0,0,1,.29.07.18.18,0,0,1,.15.17.85.85,0,0,1-.11.3l-.12.25c-.13.25-.22.46-.3.64a1.64,1.64,0,0,0-.1.49.68.68,0,0,0,.09.35.25.25,0,0,0,.27.11,1.61,1.61,0,0,0,.78-.58A7.34,7.34,0,0,0,47,7.19l.1.09a5.32,5.32,0,0,1-.58,1.17,3.53,3.53,0,0,1-.76.85,1.54,1.54,0,0,1-.78.37.58.58,0,0,1-.57-.16.77.77,0,0,1-.2-.54,1.35,1.35,0,0,1,0-.33,6.89,6.89,0,0,1-.87,1.13,1.34,1.34,0,0,1-.75.42.6.6,0,0,1-.57-.17.88.88,0,0,1-.22-.68c0-.07,0-.14,0-.21A3.23,3.23,0,0,1,42,8.56a5.67,5.67,0,0,1,.33-.8,5.82,5.82,0,0,1,1.16-1.59A2.55,2.55,0,0,1,44.79,5.4Z" transform="translate(-3.52 -1)"/><g class="cls-2"><g class="cls-25"><g class="cls-2"><polyline class="cls-8" points="36.99 8.88 35.62 8.14 35.63 8.14 36.99 8.88 36.99 8.88"/><path class="cls-9" d="M40.51,9.88l-1.37-.74h0l1.37.75,0,0" transform="translate(-3.52 -1)"/><path class="cls-10" d="M40.55,9.9l-1.37-.75h.12a.64.64,0,0,0,.18-.06l1.37.74-.18.06h-.12" transform="translate(-3.52 -1)"/><path class="cls-9" d="M40.85,9.84,39.48,9.1A.6.6,0,0,0,39.63,9L41,9.76l-.15.08" transform="translate(-3.52 -1)"/><path class="cls-8" d="M41,9.76,39.63,9a1,1,0,0,0,.17-.14l1.37.75L41,9.76" transform="translate(-3.52 -1)"/><path class="cls-11" d="M41.17,9.62,39.8,8.87A1.66,1.66,0,0,0,40,8.64l1.37.75-.23.23" transform="translate(-3.52 -1)"/><path class="cls-4" d="M41.4,9.39,40,8.64l.13-.15,1.36.75-.12.15" transform="translate(-3.52 -1)"/></g></g></g><g class="cls-2"><g class="cls-26"><g class="cls-2"><path class="cls-13" d="M40,10.18l-1.36-.74-.11-.08,1.37.75.1.07" transform="translate(-3.52 -1)"/></g></g></g><g class="cls-2"><g class="cls-27"><g class="cls-2"><path class="cls-13" d="M39.87,10.11,38.5,9.36a.65.65,0,0,1-.19-.5A3.61,3.61,0,0,1,38.48,8l1.37.74a3.66,3.66,0,0,0-.17.84.63.63,0,0,0,.19.5" transform="translate(-3.52 -1)"/></g></g></g><g class="cls-2"><g class="cls-28"><g class="cls-2"><path class="cls-13" d="M39.85,8.77,38.48,8a3.87,3.87,0,0,0,.17-.95.58.58,0,0,0-.11-.4l1.37.74a.6.6,0,0,1,.11.4,4.43,4.43,0,0,1-.17.95" transform="translate(-3.52 -1)"/></g></g></g><g class="cls-2"><g class="cls-29"><g class="cls-2"><path class="cls-13" d="M39.91,7.42l-1.37-.74a.27.27,0,0,0-.08-.07l1.37.74.08.07" transform="translate(-3.52 -1)"/></g></g></g><g class="cls-2"><g class="cls-30"><g class="cls-2"><path class="cls-13" d="M37.82,9.87l-1.36-.75c.07-.24.15-.47.23-.69l1.37.74c-.08.22-.16.45-.24.7" transform="translate(-3.52 -1)"/><path class="cls-6" d="M38.06,9.17l-1.37-.74a10.22,10.22,0,0,1,.58-1.31l1.37.74a9.5,9.5,0,0,0-.58,1.31" transform="translate(-3.52 -1)"/><path class="cls-5" d="M38.64,7.86l-1.37-.74c.06-.11.11-.2.17-.29s.09-.15.13-.22l1.37.75a1.91,1.91,0,0,0-.14.21l-.16.29" transform="translate(-3.52 -1)"/><path class="cls-4" d="M38.94,7.36l-1.37-.75.2-.25,1.37.74a2.94,2.94,0,0,0-.2.26" transform="translate(-3.52 -1)"/><path class="cls-11" d="M39.14,7.1l-1.37-.74A1.53,1.53,0,0,1,38,6.18l1.37.75-.18.17" transform="translate(-3.52 -1)"/><path class="cls-8" d="M39.32,6.93,38,6.18a1.09,1.09,0,0,1,.17-.13l1.37.74-.17.14" transform="translate(-3.52 -1)"/><path class="cls-9" d="M39.49,6.79l-1.37-.74a1,1,0,0,1,.19-.12l1.37.75a1.18,1.18,0,0,0-.19.11" transform="translate(-3.52 -1)"/><path class="cls-10" d="M39.68,6.68l-1.37-.75a1.39,1.39,0,0,1,.33-.1.74.74,0,0,1,.3,0l1.37.74a.74.74,0,0,0-.3,0,1,1,0,0,0-.33.1" transform="translate(-3.52 -1)"/><path class="cls-9" d="M40.31,6.59l-1.37-.74a.29.29,0,0,1,.1,0l1.37.75-.1,0" transform="translate(-3.52 -1)"/><path class="cls-8" d="M40.41,6.63,39,5.88h0l1.37.75h0" transform="translate(-3.52 -1)"/></g></g></g><g class="cls-2"><g class="cls-31"><g class="cls-2"><path class="cls-11" d="M38.35,6.68,37,5.94a1.54,1.54,0,0,0,.17-.19l1.37.75c-.06.06-.11.13-.17.18" transform="translate(-3.52 -1)"/><path class="cls-4" d="M38.52,6.5l-1.37-.75a4,4,0,0,0,.35-.44l1.37.74a3.34,3.34,0,0,1-.35.45" transform="translate(-3.52 -1)"/><path class="cls-5" d="M38.87,6.05,37.5,5.31a6.21,6.21,0,0,0,.4-.63l.16-.3,1.37.74c0,.1-.11.2-.17.3a6.19,6.19,0,0,1-.39.63" transform="translate(-3.52 -1)"/><path class="cls-6" d="M39.43,5.12l-1.37-.74a9,9,0,0,0,.59-1.28l.06-.16,1.37.74L40,3.85a11.88,11.88,0,0,1-.59,1.27" transform="translate(-3.52 -1)"/><path class="cls-13" d="M40.08,3.68l-1.37-.74A3.14,3.14,0,0,0,39,2l1.37.75a3.18,3.18,0,0,1-.24.91" transform="translate(-3.52 -1)"/></g></g></g><polygon class="cls-32" points="36.8 1.77 35.44 1.02 35.4 0.94 36.76 1.69 36.8 1.77"/><g class="cls-2"><g class="cls-33"><g class="cls-2"><path class="cls-13" d="M37.43,10.77,36.06,10a.52.52,0,0,1-.2-.3,2.45,2.45,0,0,1-.12-.82,3.4,3.4,0,0,1,0-.53,4,4,0,0,1,.07-.46A15.86,15.86,0,0,1,36.36,6c.11-.34.22-.67.34-1l1.36.74c-.11.32-.23.64-.34,1a15.86,15.86,0,0,0-.51,2c0,.16-.05.32-.07.46a5.17,5.17,0,0,0,0,.54,2.45,2.45,0,0,0,.12.82.45.45,0,0,0,.2.29" transform="translate(-3.52 -1)"/><path class="cls-6" d="M38.06,5.73,36.7,5a21.73,21.73,0,0,1,1-2.42l.11-.2,1.36.75-.1.2a20.77,20.77,0,0,0-1,2.41" transform="translate(-3.52 -1)"/><path class="cls-5" d="M39.21,3.12l-1.36-.75a7.31,7.31,0,0,1,.48-.8l1.36.75c-.14.21-.3.47-.48.8" transform="translate(-3.52 -1)"/><path class="cls-4" d="M39.69,2.32l-1.36-.75a3.17,3.17,0,0,1,.21-.27L39.91,2l-.22.28" transform="translate(-3.52 -1)"/><path class="cls-11" d="M39.91,2,38.54,1.3l.13-.14L40,1.91,39.91,2" transform="translate(-3.52 -1)"/><path class="cls-8" d="M40,1.91l-1.37-.75.1-.07,1.37.74-.1.08" transform="translate(-3.52 -1)"/><path class="cls-9" d="M40.14,1.83l-1.37-.74L38.86,1l1.37.75-.09.05" transform="translate(-3.52 -1)"/><path class="cls-10" d="M40.23,1.78,38.86,1,39,1h.09l1.36.75h-.08l-.11,0" transform="translate(-3.52 -1)"/><path class="cls-9" d="M40.42,1.75,39.06,1l0,0,1.37.74h0" transform="translate(-3.52 -1)"/><polyline class="cls-8" points="36.94 0.76 35.58 0.02 35.58 0.02 36.95 0.77 36.94 0.76"/></g></g></g><g class="cls-2"><g class="cls-34"><g class="cls-2"><path class="cls-8" d="M36.75,9.26l-1.37-.75.1-.07,1.37.74-.1.08" transform="translate(-3.52 -1)"/><path class="cls-11" d="M36.85,9.18l-1.37-.74.11-.11L37,9.07l-.1.11" transform="translate(-3.52 -1)"/><path class="cls-4" d="M37,9.07l-1.36-.74.1-.13,1.37.74L37,9.07" transform="translate(-3.52 -1)"/><path class="cls-5" d="M37.06,8.94,35.69,8.2l.1-.17,1.37.74-.1.17" transform="translate(-3.52 -1)"/><path class="cls-6" d="M37.16,8.77,35.79,8l.06-.11,1.36.74a.37.37,0,0,1-.05.11" transform="translate(-3.52 -1)"/></g></g></g><path class="cls-24" d="M41.52,9.24A5.4,5.4,0,0,0,42,8.56a3.23,3.23,0,0,0-.12.57c-.09.13-.19.26-.29.38a1.93,1.93,0,0,1-1.15.73.65.65,0,0,1-.55-.13.63.63,0,0,1-.19-.5,3.66,3.66,0,0,1,.17-.84A4.43,4.43,0,0,0,40,7.82a.6.6,0,0,0-.11-.4.33.33,0,0,0-.29-.1,1,1,0,0,0-.7.6,11.93,11.93,0,0,0-.63,1.5c-.18.48-.32.82-.41,1s-.22.33-.34.35-.23-.09-.31-.32a2.45,2.45,0,0,1-.12-.82,5.17,5.17,0,0,1,0-.54c0-.14,0-.3.07-.46a15.86,15.86,0,0,1,.51-1.95,23.88,23.88,0,0,1,1.39-3.39c.52-1,.92-1.53,1.23-1.58a.24.24,0,0,1,.25.19,1.07,1.07,0,0,1,.1.49,4.81,4.81,0,0,1-.37,1.49,10.48,10.48,0,0,1-.94,1.86,5.38,5.38,0,0,1-1.17,1.38,5.86,5.86,0,0,0-.3,1.17,7.27,7.27,0,0,0-.1,1.16c0,.12,0,.25,0,.39a10.72,10.72,0,0,1,1-2.3,1.82,1.82,0,0,1,1.21-1,.6.6,0,0,1,.61.22,1.31,1.31,0,0,1,.19.7,2,2,0,0,1-.06.5c0,.16-.1.36-.19.63s-.13.39-.16.51a1.2,1.2,0,0,0,0,.36.46.46,0,0,0,.08.32.23.23,0,0,0,.24.08C40.91,9.87,41.19,9.64,41.52,9.24ZM39,4.86a14.34,14.34,0,0,0-.66,1.82,5.4,5.4,0,0,0,.91-1.26A10.22,10.22,0,0,0,40,3.85a3.79,3.79,0,0,0,.3-1.08l0-.08c-.08,0-.24.22-.49.63A13.62,13.62,0,0,0,39,4.86" transform="translate(-3.52 -1)"/><g class="cls-2"><g class="cls-35"><g class="cls-2"><path class="cls-9" d="M35.7,9.49l-1.37-.74.12,0,1.37.74-.12,0" transform="translate(-3.52 -1)"/><path class="cls-10" d="M35.82,9.53l-1.37-.74a.7.7,0,0,0,.29,0,1.1,1.1,0,0,0,.34-.1l1.37.74a1.22,1.22,0,0,1-.34.11.7.7,0,0,1-.29,0" transform="translate(-3.52 -1)"/><path class="cls-9" d="M36.45,9.44,35.08,8.7l.23-.13,1.37.74a1.34,1.34,0,0,1-.23.13" transform="translate(-3.52 -1)"/><path class="cls-8" d="M36.68,9.31l-1.37-.74.07-.06,1.37.75-.07.05" transform="translate(-3.52 -1)"/></g></g></g><g class="cls-2"><g class="cls-36"><g class="cls-2"><path class="cls-5" d="M35.46,9.32l-1.37-.75.06-.1,1.37.74-.06.11" transform="translate(-3.52 -1)"/><path class="cls-6" d="M35.52,9.21l-1.37-.74a5.64,5.64,0,0,0,.39-.88l1.37.75a6.65,6.65,0,0,1-.39.87" transform="translate(-3.52 -1)"/></g></g></g><g class="cls-2"><g class="cls-37"><g class="cls-2"><path class="cls-11" d="M34.65,10.4l-1.37-.74.2-.21,1.37.74-.2.21" transform="translate(-3.52 -1)"/><path class="cls-4" d="M34.85,10.19l-1.37-.74A4.88,4.88,0,0,0,33.8,9l1.37.75a4.67,4.67,0,0,1-.32.4" transform="translate(-3.52 -1)"/><path class="cls-5" d="M35.17,9.79,33.8,9l.09-.14,1.37.75-.09.14" transform="translate(-3.52 -1)"/></g></g></g><g class="cls-2"><g class="cls-38"><g class="cls-2"><path class="cls-13" d="M35.91,8.34l-1.37-.75a2.51,2.51,0,0,0,.17-.87,1,1,0,0,0-.08-.48L36,7a.81.81,0,0,1,.09.47,2.83,2.83,0,0,1-.17.88" transform="translate(-3.52 -1)"/></g></g></g><g class="cls-2"><g class="cls-39"><g class="cls-2"><polyline class="cls-8" points="30.42 9.7 29.05 8.96 29.06 8.96 30.43 9.71 30.42 9.7"/><path class="cls-9" d="M33.94,10.7,32.58,10l0,0,1.37.74-.05,0" transform="translate(-3.52 -1)"/><path class="cls-10" d="M34,10.72,32.62,10h.13a.44.44,0,0,0,.15-.05l1.37.75-.15.05H34" transform="translate(-3.52 -1)"/><path class="cls-9" d="M34.27,10.68,32.9,9.93l.15-.08,1.37.74-.15.09" transform="translate(-3.52 -1)"/><path class="cls-8" d="M34.42,10.59l-1.37-.74.2-.16,1.37.74-.2.16" transform="translate(-3.52 -1)"/><path class="cls-11" d="M34.62,10.43l-1.37-.74,0,0,1.37.74,0,0" transform="translate(-3.52 -1)"/></g></g></g><g class="cls-2"><g class="cls-40"><g class="cls-2"><path class="cls-13" d="M35.26,9.65,33.89,8.9a1.42,1.42,0,0,1-.45-.63L34.81,9a1.51,1.51,0,0,0,.45.64" transform="translate(-3.52 -1)"/></g></g></g><g class="cls-2"><g class="cls-41"><g class="cls-2"><path class="cls-13" d="M36,7l-1.36-.75a.29.29,0,0,0-.11-.11l1.37.75A.18.18,0,0,1,36,7" transform="translate(-3.52 -1)"/></g></g></g><g class="cls-2"><g class="cls-42"><g class="cls-2"><path class="cls-5" d="M34.93,7.09l-1.37-.75.06-.09L35,7a.35.35,0,0,0-.06.09" transform="translate(-3.52 -1)"/><path class="cls-4" d="M35,7l-1.37-.75.08-.11,1.37.75A.44.44,0,0,0,35,7" transform="translate(-3.52 -1)"/><path class="cls-11" d="M35.07,6.89,33.7,6.14l.09-.08,1.37.74-.09.09" transform="translate(-3.52 -1)"/><path class="cls-8" d="M35.16,6.8l-1.37-.74.1-.08,1.37.74a.39.39,0,0,0-.1.08" transform="translate(-3.52 -1)"/><path class="cls-9" d="M35.26,6.72,33.89,6,34,5.9l1.37.74-.14.08" transform="translate(-3.52 -1)"/><path class="cls-10" d="M35.4,6.64,34,5.9a1,1,0,0,1,.29-.09.8.8,0,0,1,.35,0L36,6.56a1.31,1.31,0,0,0-.35,0,1.4,1.4,0,0,0-.29.09" transform="translate(-3.52 -1)"/><path class="cls-9" d="M36,6.56l-1.37-.74.09,0,1.37.75-.09,0" transform="translate(-3.52 -1)"/><path class="cls-8" d="M36.13,6.6l-1.37-.75h0l1.37.75h0" transform="translate(-3.52 -1)"/></g></g></g><g class="cls-2"><g class="cls-43"><g class="cls-2"><path class="cls-13" d="M34.81,9l-1.37-.74a2.27,2.27,0,0,1-.17-.86,2.19,2.19,0,0,1,.12-.73l1.37.75a2.09,2.09,0,0,0-.12.72,2.06,2.06,0,0,0,.17.86" transform="translate(-3.52 -1)"/><path class="cls-6" d="M34.76,7.43l-1.37-.75a2.56,2.56,0,0,1,.11-.24l1.37.75a1.33,1.33,0,0,0-.11.24" transform="translate(-3.52 -1)"/><path class="cls-5" d="M34.87,7.19,33.5,6.44l.06-.1,1.37.75-.06.1" transform="translate(-3.52 -1)"/></g></g></g><g class="cls-2"><g class="cls-44"><g class="cls-2"><path class="cls-4" d="M33.7,8.35,32.33,7.6l.09-.1,1.37.74-.09.11" transform="translate(-3.52 -1)"/><path class="cls-11" d="M33.79,8.24,32.42,7.5l.12-.12,1.36.74-.11.12" transform="translate(-3.52 -1)"/><path class="cls-8" d="M33.9,8.12l-1.36-.74a.39.39,0,0,1,.1-.08L34,8l-.11.08" transform="translate(-3.52 -1)"/><path class="cls-9" d="M34,8,32.64,7.3a.41.41,0,0,1,.11-.07L34.12,8,34,8" transform="translate(-3.52 -1)"/><path class="cls-10" d="M34.12,8l-1.37-.75.16-.05a1,1,0,0,1,.23,0L34.5,8a.6.6,0,0,0-.22,0,.43.43,0,0,0-.16.05" transform="translate(-3.52 -1)"/></g></g></g><path class="cls-24" d="M36.75,9.26a1.42,1.42,0,0,0,.46-.6c0,.16-.05.32-.07.46a1.34,1.34,0,0,1-.34.37,1.56,1.56,0,0,1-.73.34h0a1,1,0,0,1-.51,0,4.91,4.91,0,0,1-.82,1,1.48,1.48,0,0,1-.79.44h0a.65.65,0,0,1-.64-.2,1.13,1.13,0,0,1-.2-.73.86.86,0,0,1,0-.16,2.71,2.71,0,0,1,.12-.66.66.66,0,0,1,.06-.2,3.38,3.38,0,0,1,.47-.93.94.94,0,0,1,.58-.42.6.6,0,0,1,.22,0,2.06,2.06,0,0,0-.31.55,6.09,6.09,0,0,0-.31.88,2.46,2.46,0,0,0-.14.74c0,.43.12.64.38.61a1.14,1.14,0,0,0,.53-.33,4.4,4.4,0,0,0,.61-.75A1.51,1.51,0,0,1,34.81,9a2.06,2.06,0,0,1-.17-.86,2,2,0,0,1,.29-1.06,1,1,0,0,1,.76-.54.61.61,0,0,1,.58.16,1.1,1.1,0,0,1,.16.63,3,3,0,0,1-.21,1,6,6,0,0,1-.52,1.13.73.73,0,0,0,.41.06A1.35,1.35,0,0,0,36.75,9.26Zm-1.29.06a6.1,6.1,0,0,0,.45-1,2.83,2.83,0,0,0,.17-.88A.81.81,0,0,0,36,7a.21.21,0,0,0-.22-.14.61.61,0,0,0-.31.2,1.54,1.54,0,0,0-.26.46,2.19,2.19,0,0,0,0,1.28,1.21,1.21,0,0,0,.27.53" transform="translate(-3.52 -1)"/><g class="cls-2"><g class="cls-45"><g class="cls-2"><path class="cls-13" d="M33.4,11.16,32,10.42a.65.65,0,0,1-.16-.13,1.21,1.21,0,0,1-.2-.74c0-.05,0-.1,0-.16a2.71,2.71,0,0,1,.12-.66l.06-.2s0-.07,0-.11l1.37.74a.56.56,0,0,0,0,.12.66.66,0,0,0-.06.2,2.71,2.71,0,0,0-.12.66.86.86,0,0,0,0,.16,1.13,1.13,0,0,0,.2.73.4.4,0,0,0,.16.13" transform="translate(-3.52 -1)"/><path class="cls-6" d="M33.27,9.16,31.9,8.42A4.68,4.68,0,0,1,32.1,8l1.37.75a2.94,2.94,0,0,0-.2.44" transform="translate(-3.52 -1)"/><path class="cls-5" d="M33.47,8.72,32.1,8a3.21,3.21,0,0,1,.19-.31l1.37.75a2.32,2.32,0,0,0-.19.31" transform="translate(-3.52 -1)"/><path class="cls-4" d="M33.66,8.41l-1.37-.75,0-.06,1.37.75,0,.06" transform="translate(-3.52 -1)"/></g></g></g><g class="cls-2"><g class="cls-46"><g class="cls-2"><path class="cls-10" d="M31.7,11.06l-1.37-.75a.92.92,0,0,0,.27-.08L32,11a1.12,1.12,0,0,1-.26.08" transform="translate(-3.52 -1)"/><path class="cls-9" d="M32,11l-1.36-.75.17-.1,1.37.75L32,11" transform="translate(-3.52 -1)"/><path class="cls-8" d="M32.14,10.88l-1.37-.75.16-.13,1.37.75-.16.13" transform="translate(-3.52 -1)"/><path class="cls-11" d="M32.3,10.75,30.93,10a1.53,1.53,0,0,0,.18-.18l1.37.74-.18.19" transform="translate(-3.52 -1)"/><path class="cls-4" d="M32.48,10.56l-1.37-.74a2.45,2.45,0,0,0,.23-.29l1.36.75a3.42,3.42,0,0,1-.22.28" transform="translate(-3.52 -1)"/><path class="cls-5" d="M32.7,10.28l-1.36-.75A5.11,5.11,0,0,0,31.67,9L33,9.73a5.32,5.32,0,0,1-.33.55" transform="translate(-3.52 -1)"/><path class="cls-6" d="M33,9.73,31.67,9c0-.08.09-.17.13-.26l1.37.75L33,9.73" transform="translate(-3.52 -1)"/></g></g></g><g class="cls-2"><g class="cls-47"><g class="cls-2"><polyline class="cls-8" points="27.86 10.03 26.49 9.28 26.5 9.29 27.87 10.03 27.86 10.03"/><path class="cls-9" d="M31.38,11,30,10.29l.06,0,1.37.74-.07,0" transform="translate(-3.52 -1)"/><path class="cls-10" d="M31.45,11.05l-1.37-.74a.52.52,0,0,0,.25,0l1.37.75a.67.67,0,0,1-.25,0" transform="translate(-3.52 -1)"/></g></g></g><polygon class="cls-10" points="28.55 6.2 27.19 5.46 27.36 5.51 28.72 6.25 28.55 6.2"/><g class="cls-2"><g class="cls-48"><g class="cls-2"><path class="cls-13" d="M30.89,11.45l-1.37-.74-.16-.13a1,1,0,0,1-.21-.66,1.91,1.91,0,0,1,0-.32,4.58,4.58,0,0,1,.14-.68c0-.09.05-.18.08-.28s.12-.38.18-.55L31,8.83a5.05,5.05,0,0,0-.18.55c0,.1-.06.19-.08.29a6,6,0,0,0-.15.67c0,.12,0,.23,0,.32a1,1,0,0,0,.21.66.48.48,0,0,0,.16.13" transform="translate(-3.52 -1)"/><path class="cls-6" d="M31,8.83l-1.37-.74A6.64,6.64,0,0,1,30,7.2l1.37.74a6,6,0,0,0-.4.89" transform="translate(-3.52 -1)"/><path class="cls-5" d="M31.35,7.94,30,7.2l0,0,.17-.27,1.37.75a3.18,3.18,0,0,0-.17.27l0,0" transform="translate(-3.52 -1)"/><path class="cls-4" d="M31.54,7.63l-1.37-.75c0-.06.09-.11.13-.16l1.37.74-.13.17" transform="translate(-3.52 -1)"/><path class="cls-11" d="M31.67,7.46,30.3,6.72a.94.94,0,0,1,.1-.1l1.37.74a.47.47,0,0,0-.1.1" transform="translate(-3.52 -1)"/><path class="cls-8" d="M31.77,7.36,30.4,6.62l.09-.07,1.36.74-.08.07" transform="translate(-3.52 -1)"/><path class="cls-9" d="M31.85,7.29l-1.36-.74.08,0,1.37.74-.09,0" transform="translate(-3.52 -1)"/><path class="cls-10" d="M31.94,7.24,30.57,6.5a.38.38,0,0,1,.13,0l1.37.74-.13,0" transform="translate(-3.52 -1)"/></g></g></g><g class="cls-2"><g class="cls-49"><g class="cls-2"><path class="cls-4" d="M30.24,10.41l-1.37-.75A1.71,1.71,0,0,0,29,9.52l1.36.74-.1.15" transform="translate(-3.52 -1)"/><path class="cls-5" d="M30.34,10.26,29,9.52a3.64,3.64,0,0,0,.23-.39l1.37.74a1.84,1.84,0,0,1-.24.39" transform="translate(-3.52 -1)"/><path class="cls-6" d="M30.58,9.87l-1.37-.74a2.12,2.12,0,0,0,.11-.21l1.37.75c0,.07-.07.14-.11.2" transform="translate(-3.52 -1)"/></g></g></g><path class="cls-24" d="M31.7,11.06c.5-.07,1-.6,1.47-1.58a2.71,2.71,0,0,0-.12.66,3.29,3.29,0,0,1-.48.66,2.16,2.16,0,0,1-1.23.71.65.65,0,0,1-.61-.19,1,1,0,0,1-.21-.66c0-.09,0-.2,0-.32a6,6,0,0,1,.15-.67c0-.1,0-.19.08-.29a7.14,7.14,0,0,1,.6-1.48c.24-.44.48-.67.7-.7l.17,0,.07.18a3.43,3.43,0,0,1-.35.82c-.24.45-.42.85-.57,1.21a2.88,2.88,0,0,0-.21,1,.82.82,0,0,0,.12.53A.45.45,0,0,0,31.7,11.06Z" transform="translate(-3.52 -1)"/><g class="cls-2"><g class="cls-50"><g class="cls-2"><path class="cls-10" d="M29.16,10.87l-1.37-.74a1.26,1.26,0,0,0,.27,0,1.12,1.12,0,0,0,.38-.11l1.37.75a1.52,1.52,0,0,1-.38.11,1.22,1.22,0,0,1-.27,0" transform="translate(-3.52 -1)"/><path class="cls-9" d="M29.81,10.76,28.44,10l.16-.09,1.37.74-.16.1" transform="translate(-3.52 -1)"/><path class="cls-8" d="M30,10.66,28.6,9.92l.12-.09,1.37.74-.12.09" transform="translate(-3.52 -1)"/><path class="cls-11" d="M30.09,10.57l-1.37-.74.09-.1,1.37.74-.09.1" transform="translate(-3.52 -1)"/><path class="cls-4" d="M30.18,10.47l-1.37-.74.06-.07,1.37.75-.06.06" transform="translate(-3.52 -1)"/></g></g></g><g class="cls-2"><g class="cls-51"><g class="cls-2"><path class="cls-11" d="M28.2,11.78,26.83,11l.13-.13,1.36.74-.12.13" transform="translate(-3.52 -1)"/><path class="cls-4" d="M28.32,11.65,27,10.91a1.84,1.84,0,0,0,.17-.22l1.37.74a1.92,1.92,0,0,1-.18.22" transform="translate(-3.52 -1)"/><path class="cls-5" d="M28.5,11.43l-1.37-.74a2.26,2.26,0,0,0,.16-.26l1.37.75c-.05.09-.11.17-.16.25" transform="translate(-3.52 -1)"/><path class="cls-6" d="M28.66,11.18l-1.37-.75a.89.89,0,0,0,.08-.17l1.37.75c0,.05,0,.11-.08.17" transform="translate(-3.52 -1)"/></g></g></g><g class="cls-2"><g class="cls-52"><g class="cls-2"><path class="cls-8" d="M27.29,12.1l-1.37-.74h0l1.37.75h0" transform="translate(-3.52 -1)"/><path class="cls-9" d="M27.3,12.11l-1.37-.75.07,0,1.37.74-.07,0" transform="translate(-3.52 -1)"/><path class="cls-10" d="M27.37,12.13,26,11.39a.59.59,0,0,0,.19,0,.75.75,0,0,0,.24-.08l1.37.75a1.09,1.09,0,0,1-.24.07.4.4,0,0,1-.19,0" transform="translate(-3.52 -1)"/><path class="cls-9" d="M27.8,12.07l-1.37-.75.18-.1L28,12l-.18.11" transform="translate(-3.52 -1)"/><path class="cls-8" d="M28,12l-1.37-.74.21-.17,1.37.74A1.57,1.57,0,0,1,28,12" transform="translate(-3.52 -1)"/><polyline class="cls-11" points="24.68 10.79 23.31 10.05 23.32 10.04 24.69 10.78 24.68 10.79"/></g></g></g><g class="cls-2"><g class="cls-53"><g class="cls-2"><path class="cls-6" d="M28.84,10.76,27.48,10l.06-.15,1.37.74a1.11,1.11,0,0,1-.07.16" transform="translate(-3.52 -1)"/><path class="cls-13" d="M28.91,10.6l-1.37-.74a3.18,3.18,0,0,0,.19-1,1.51,1.51,0,0,0-.1-.62L29,9a1.67,1.67,0,0,1,.09.61,3.12,3.12,0,0,1-.18,1" transform="translate(-3.52 -1)"/></g></g></g><g class="cls-2"><g class="cls-54"><g class="cls-2"><path class="cls-13" d="M29,9,27.63,8.2A.31.31,0,0,0,27.49,8l1.36.74A.35.35,0,0,1,29,9" transform="translate(-3.52 -1)"/></g></g></g><g class="cls-2"><g class="cls-55"><g class="cls-2"><path class="cls-5" d="M28.23,8.71,26.86,8V8l1.37.74v0" transform="translate(-3.52 -1)"/><path class="cls-4" d="M28.24,8.69,26.87,8,27,7.84l1.37.74-.09.11" transform="translate(-3.52 -1)"/><path class="cls-11" d="M28.33,8.58,27,7.84,27,7.75l1.37.75a.3.3,0,0,0-.08.08" transform="translate(-3.52 -1)"/><path class="cls-8" d="M28.41,8.5,27,7.75l.1-.07,1.37.74-.1.08" transform="translate(-3.52 -1)"/><path class="cls-9" d="M28.51,8.42l-1.37-.74.12-.07,1.37.74-.12.07" transform="translate(-3.52 -1)"/><path class="cls-10" d="M28.63,8.35l-1.37-.74a.67.67,0,0,1,.24-.07.54.54,0,0,1,.22,0l1.36.74a.53.53,0,0,0-.22,0,.88.88,0,0,0-.23.07" transform="translate(-3.52 -1)"/><path class="cls-9" d="M29.08,8.29l-1.36-.74.08,0,1.36.74-.08,0" transform="translate(-3.52 -1)"/><path class="cls-8" d="M29.16,8.32,27.8,7.58h0l1.37.74h0" transform="translate(-3.52 -1)"/></g></g></g><g class="cls-2"><g class="cls-56"><g class="cls-2"><path class="cls-13" d="M28.63,11l-1.36-.75a1.12,1.12,0,0,1-.47-.49,1.68,1.68,0,0,1-.2-.84,1.64,1.64,0,0,1,.1-.6L28.06,9a2.21,2.21,0,0,0-.1.6,1.76,1.76,0,0,0,.2.83,1.26,1.26,0,0,0,.47.5" transform="translate(-3.52 -1)"/><path class="cls-6" d="M28.06,9,26.7,8.28a1.42,1.42,0,0,1,.08-.18l1.36.75L28.06,9" transform="translate(-3.52 -1)"/><path class="cls-5" d="M28.14,8.85,26.78,8.1,26.86,8l1.37.74-.09.14" transform="translate(-3.52 -1)"/><polyline class="cls-4" points="24.71 7.72 23.34 6.97 23.35 6.97 24.71 7.71 24.71 7.72"/></g></g></g><g class="cls-2"><g class="cls-57"><g class="cls-2"><path class="cls-11" d="M27.62,8.16l-1.37-.74.16-.17L27.78,8l-.16.17" transform="translate(-3.52 -1)"/><path class="cls-4" d="M27.78,8l-1.37-.74a4.41,4.41,0,0,0,.35-.45l1.37.74a4.41,4.41,0,0,1-.35.45" transform="translate(-3.52 -1)"/><path class="cls-5" d="M28.13,7.54,26.76,6.8a7.16,7.16,0,0,0,.4-.64c.06-.1.12-.2.17-.3l1.37.74-.17.3a7.16,7.16,0,0,1-.4.64" transform="translate(-3.52 -1)"/><path class="cls-6" d="M28.7,6.6l-1.37-.74a11.16,11.16,0,0,0,.59-1.28L28,4.42l1.37.75-.06.16A11.88,11.88,0,0,1,28.7,6.6" transform="translate(-3.52 -1)"/><path class="cls-13" d="M29.35,5.17,28,4.42a3.18,3.18,0,0,0,.24-.91l1.36.74a3.1,3.1,0,0,1-.23.92" transform="translate(-3.52 -1)"/></g></g></g><polygon class="cls-32" points="26.07 3.25 24.7 2.51 24.66 2.43 26.03 3.17 26.07 3.25"/><g class="cls-2"><g class="cls-58"><g class="cls-2"><path class="cls-13" d="M26.76,12.52l-1.37-.74a.69.69,0,0,1-.22-.2,1.55,1.55,0,0,1-.28-1,10.66,10.66,0,0,1,.65-3c.08-.24.16-.47.25-.7l1.37.75c-.09.22-.17.46-.25.69a10.73,10.73,0,0,0-.65,3,1.67,1.67,0,0,0,.27,1,.83.83,0,0,0,.23.19" transform="translate(-3.52 -1)"/><path class="cls-6" d="M27.16,7.59l-1.37-.75A22,22,0,0,1,27,4.08l.08-.16,1.37.75-.09.16a20.8,20.8,0,0,0-1.21,2.76" transform="translate(-3.52 -1)"/><path class="cls-5" d="M28.46,4.67l-1.37-.75a8.17,8.17,0,0,1,.53-.87L29,3.79a8.57,8.57,0,0,0-.52.88" transform="translate(-3.52 -1)"/><path class="cls-4" d="M29,3.79l-1.36-.74c.07-.11.15-.2.21-.28l1.37.74L29,3.79" transform="translate(-3.52 -1)"/><path class="cls-11" d="M29.2,3.51l-1.37-.74L28,2.64l1.37.74-.13.13" transform="translate(-3.52 -1)"/><path class="cls-8" d="M29.33,3.38,28,2.64l.1-.08,1.36.74-.09.08" transform="translate(-3.52 -1)"/><path class="cls-9" d="M29.42,3.3l-1.36-.74.08-.05,1.37.75-.09,0" transform="translate(-3.52 -1)"/><path class="cls-10" d="M29.51,3.26l-1.37-.75.1,0h.08l1.37.74H29.6a.16.16,0,0,0-.09,0" transform="translate(-3.52 -1)"/><path class="cls-9" d="M29.69,3.23l-1.37-.74h0l1.36.74h0" transform="translate(-3.52 -1)"/><polyline class="cls-8" points="26.21 2.25 24.84 1.5 24.85 1.51 26.22 2.25 26.21 2.25"/></g></g></g><path class="cls-24" d="M30.24,10.41a4.68,4.68,0,0,0,.45-.74,6,6,0,0,0-.15.67,1.87,1.87,0,0,1-.28.33,1.68,1.68,0,0,1-.86.41,2,2,0,0,1-.34,0,3.94,3.94,0,0,1-.76,1,1.64,1.64,0,0,1-.95.48.84.84,0,0,1-.82-.27,1.67,1.67,0,0,1-.27-1,10.73,10.73,0,0,1,.65-3,24.18,24.18,0,0,1,1.46-3.45c.54-1,.94-1.56,1.23-1.6.11,0,.2,0,.26.19A1.14,1.14,0,0,1,30,3.9a4.8,4.8,0,0,1-.36,1.49,10.37,10.37,0,0,1-.92,1.86,5.21,5.21,0,0,1-1.18,1.38,8.63,8.63,0,0,0-.33,1.09A6.33,6.33,0,0,0,27,11.13c0,.73.19,1.07.58,1a1.2,1.2,0,0,0,.64-.36,2.54,2.54,0,0,0,.54-.77,1.19,1.19,0,0,1-.58-.55,1.76,1.76,0,0,1-.2-.83,1.61,1.61,0,0,1,.27-.92,1,1,0,0,1,.63-.43.47.47,0,0,1,.49.21,1.31,1.31,0,0,1,.19.76,4.27,4.27,0,0,1-.38,1.62,1.19,1.19,0,0,0,1.08-.46Zm-2-4a12.66,12.66,0,0,0-.63,1.77,5.71,5.71,0,0,0,.91-1.26,11.24,11.24,0,0,0,.76-1.57,3.59,3.59,0,0,0,.29-1.08l0-.08c-.08,0-.24.22-.49.65a13.32,13.32,0,0,0-.8,1.57m.59,4.37a3,3,0,0,0,.25-1.2A1.67,1.67,0,0,0,29,9c-.07-.15-.15-.21-.26-.2s-.2.11-.28.28a1.41,1.41,0,0,0-.13.61,1.84,1.84,0,0,0,.13.65,1,1,0,0,0,.38.47" transform="translate(-3.52 -1)"/></g><g class="cls-2"><g class="cls-2"><g class="cls-59"><g class="cls-2"><path class="cls-8" d="M21.63,13l-1.37-.74h0l1.37.75,0,0" transform="translate(-3.52 -1)"/><path class="cls-9" d="M21.66,13l-1.37-.75.18.07,1.36.74a1.15,1.15,0,0,1-.17-.06" transform="translate(-3.52 -1)"/><path class="cls-10" d="M21.83,13.05l-1.36-.74a1.22,1.22,0,0,0,.47,0,1.82,1.82,0,0,0,.55-.16l1.37.74a1.9,1.9,0,0,1-.56.17,1.21,1.21,0,0,1-.47,0" transform="translate(-3.52 -1)"/><path class="cls-9" d="M22.86,12.9l-1.37-.74a2.07,2.07,0,0,0,.32-.19l1.37.75a2,2,0,0,1-.32.18" transform="translate(-3.52 -1)"/><path class="cls-8" d="M23.18,12.72,21.81,12a1.93,1.93,0,0,0,.28-.22l1.37.75-.28.22" transform="translate(-3.52 -1)"/><path class="cls-11" d="M23.46,12.5l-1.37-.75a2.47,2.47,0,0,0,.28-.28l1.37.74a3.9,3.9,0,0,1-.28.29" transform="translate(-3.52 -1)"/><path class="cls-4" d="M23.74,12.21l-1.37-.74c.1-.12.21-.25.31-.39v0l1.37.74,0,0q-.15.21-.3.39" transform="translate(-3.52 -1)"/><path class="cls-5" d="M24.06,11.8l-1.37-.74c.16-.24.32-.49.46-.75l1.37.74a8.77,8.77,0,0,1-.46.75" transform="translate(-3.52 -1)"/><path class="cls-6" d="M24.52,11.05l-1.37-.74a10.29,10.29,0,0,0,.54-1.21l1.37.75a9.45,9.45,0,0,1-.54,1.2" transform="translate(-3.52 -1)"/><path class="cls-13" d="M25.06,9.85,23.69,9.1c.08-.23.16-.47.23-.71a10.89,10.89,0,0,0,.47-3l1.36.74a10.39,10.39,0,0,1-.46,3c-.07.25-.15.49-.23.72" transform="translate(-3.52 -1)"/></g></g></g><g class="cls-2"><g class="cls-60"><g class="cls-2"><path class="cls-13" d="M21,13.36l-1.37-.75-.1,0,1.37.74.1.06" transform="translate(-3.52 -1)"/></g></g></g><g class="cls-2"><g class="cls-61"><g class="cls-2"><path class="cls-13" d="M25.75,6.16l-1.36-.74a5.2,5.2,0,0,0-.11-1.08Q24.19,4,24,3.92l1.37.74a.61.61,0,0,1,.23.43,4,4,0,0,1,.11,1.07" transform="translate(-3.52 -1)"/></g></g></g><g class="cls-2"><g class="cls-62"><g class="cls-2"><path class="cls-13" d="M23.56,7.22l-1.37-.74-.11-.08,1.36.74a.5.5,0,0,0,.12.08" transform="translate(-3.52 -1)"/></g></g></g><g class="cls-2"><g class="cls-63"><g class="cls-2"><path class="cls-13" d="M23.44,7.14,22.08,6.4A.49.49,0,0,1,22,6.06,1.28,1.28,0,0,1,22,5.62l1.37.74a1.38,1.38,0,0,0-.09.45.46.46,0,0,0,.12.33" transform="translate(-3.52 -1)"/><path class="cls-6" d="M23.41,6.36,22,5.62a1.85,1.85,0,0,1,.18-.38L23.58,6a3.8,3.8,0,0,0-.17.38" transform="translate(-3.52 -1)"/><path class="cls-5" d="M23.58,6l-1.36-.74a1,1,0,0,1,.08-.14c.07-.12.14-.24.22-.35l1.37.74c-.08.11-.16.23-.23.35a.64.64,0,0,1-.08.14" transform="translate(-3.52 -1)"/><path class="cls-4" d="M23.89,5.49l-1.37-.74a4.47,4.47,0,0,1,.32-.41l1.37.74c-.11.13-.22.27-.32.41" transform="translate(-3.52 -1)"/><path class="cls-11" d="M24.21,5.08l-1.37-.74a3.07,3.07,0,0,1,.25-.26L23.18,4l1.37.74-.09.08-.25.26" transform="translate(-3.52 -1)"/><path class="cls-8" d="M24.55,4.74,23.18,4a2.18,2.18,0,0,1,.26-.21l1.37.74a2.39,2.39,0,0,0-.26.21" transform="translate(-3.52 -1)"/><path class="cls-9" d="M24.81,4.53l-1.37-.74a1.79,1.79,0,0,1,.22-.13L25,4.4l-.21.13" transform="translate(-3.52 -1)"/><path class="cls-10" d="M25,4.4l-1.36-.74a.75.75,0,0,1,.23-.07.44.44,0,0,1,.23,0l1.37.74a.59.59,0,0,0-.23,0A1.53,1.53,0,0,0,25,4.4" transform="translate(-3.52 -1)"/><path class="cls-9" d="M25.49,4.34,24.12,3.6l.09,0,1.37.74-.09,0" transform="translate(-3.52 -1)"/><path class="cls-8" d="M25.58,4.37l-1.37-.74h0l1.37.74h0" transform="translate(-3.52 -1)"/></g></g></g><g class="cls-2"><g class="cls-64"><g class="cls-2"><path class="cls-10" d="M24.39,3.88,23,3.14a1.52,1.52,0,0,1,.53,0l1.36.75a1.44,1.44,0,0,0-.52,0" transform="translate(-3.52 -1)"/><path class="cls-9" d="M24.91,3.9l-1.36-.75.11,0L25,3.94l-.12,0" transform="translate(-3.52 -1)"/></g></g></g><g class="cls-2"><g class="cls-65"><g class="cls-2"><path class="cls-13" d="M20.91,13.3l-1.37-.74a1.82,1.82,0,0,1-.72-.91,3.7,3.7,0,0,1-.24-1.12c0-.11,0-.22,0-.33a7.64,7.64,0,0,1,.5-2.57l1.37.75a7.59,7.59,0,0,0-.5,2.56c0,.12,0,.23,0,.33a3.76,3.76,0,0,0,.24,1.13,1.79,1.79,0,0,0,.72.9" transform="translate(-3.52 -1)"/><path class="cls-6" d="M20.44,8.38l-1.37-.75c.06-.16.12-.32.19-.49s.28-.61.44-.9L21.06,7c-.15.28-.29.58-.43.89s-.13.33-.19.5" transform="translate(-3.52 -1)"/><path class="cls-5" d="M21.06,7,19.7,6.24a7.89,7.89,0,0,1,.6-1L21.66,6c-.21.31-.41.63-.6,1" transform="translate(-3.52 -1)"/><path class="cls-4" d="M21.66,6,20.3,5.27a6.29,6.29,0,0,1,.59-.75l1.36.74c-.2.24-.4.49-.59.75" transform="translate(-3.52 -1)"/><path class="cls-11" d="M22.25,5.26l-1.36-.74L21,4.41,21.41,4l1.36.74q-.21.2-.42.42l-.1.11" transform="translate(-3.52 -1)"/><path class="cls-8" d="M22.77,4.73,21.41,4a5,5,0,0,1,.46-.37l1.37.74a5.06,5.06,0,0,0-.47.37" transform="translate(-3.52 -1)"/><path class="cls-9" d="M23.24,4.36l-1.37-.74a3.3,3.3,0,0,1,.47-.27l1.37.74a3.77,3.77,0,0,0-.47.27" transform="translate(-3.52 -1)"/><path class="cls-10" d="M23.71,4.09l-1.37-.74A2.31,2.31,0,0,1,23,3.14l1.37.74a2.22,2.22,0,0,0-.68.21" transform="translate(-3.52 -1)"/></g></g></g><g class="cls-2"><g class="cls-66"><g class="cls-2"><path class="cls-10" d="M18.42,12.92l-1.37-.74h0l.16,0,1.37.74a.49.49,0,0,1-.16.05h0" transform="translate(-3.52 -1)"/><path class="cls-9" d="M18.6,12.87l-1.37-.74.12-.07,1.37.74-.12.07" transform="translate(-3.52 -1)"/><path class="cls-8" d="M18.72,12.8l-1.37-.74.12-.09,1.36.74a.44.44,0,0,1-.11.09" transform="translate(-3.52 -1)"/><path class="cls-11" d="M18.83,12.71,17.47,12l.13-.14,1.37.74-.14.14" transform="translate(-3.52 -1)"/><path class="cls-4" d="M19,12.57l-1.37-.74.18-.23,1.37.74a2.31,2.31,0,0,1-.18.23" transform="translate(-3.52 -1)"/><path class="cls-5" d="M19.15,12.34l-1.37-.74,0,0c.13-.19.25-.4.38-.63l1.36.74a6.36,6.36,0,0,1-.38.64l0,0" transform="translate(-3.52 -1)"/><path class="cls-6" d="M19.55,11.67l-1.36-.74q.18-.35.36-.75l1.37.74c-.12.27-.24.52-.37.75" transform="translate(-3.52 -1)"/></g></g></g><g class="cls-2"><g class="cls-67"><g class="cls-2"><polyline class="cls-8" points="14.73 11.9 13.36 11.16 13.37 11.16 14.73 11.91 14.73 11.9"/><path class="cls-9" d="M18.25,12.9l-1.37-.74,0,0,1.37.74,0,0" transform="translate(-3.52 -1)"/><path class="cls-10" d="M18.29,12.92l-1.37-.74h.13l1.37.74h-.13" transform="translate(-3.52 -1)"/></g></g></g><path class="cls-24" d="M24.39,3.88a1.15,1.15,0,0,1,.64.06l-.12,0a3.09,3.09,0,0,0-1.83,1.26A10.12,10.12,0,0,0,21.51,8a8.14,8.14,0,0,0-.63,3,3.15,3.15,0,0,0,.35,1.61,1,1,0,0,0,1.07.5A2.64,2.64,0,0,0,24,11.82a9,9,0,0,0,1.25-2.69,10.39,10.39,0,0,0,.46-3,4,4,0,0,0-.11-1.07c-.08-.33-.2-.47-.36-.45s-.35.19-.55.5a6.38,6.38,0,0,0-.56,1.08,5.54,5.54,0,0,0-.34,1.09.64.64,0,0,1-.39-.17.46.46,0,0,1-.12-.33,2.13,2.13,0,0,1,.34-1,5,5,0,0,1,.8-1,1.62,1.62,0,0,1,.8-.49c.33,0,.56.15.7.58a5,5,0,0,1,.2,1.52A9.28,9.28,0,0,1,25.5,10a7.06,7.06,0,0,1-1.64,2.48,3.48,3.48,0,0,1-1.85,1h0a1.48,1.48,0,0,1-1.07-.2,1.79,1.79,0,0,1-.72-.9A3.76,3.76,0,0,1,20,11.27c0-.1,0-.21,0-.33a7.93,7.93,0,0,1,.69-3.06,9.85,9.85,0,0,1,1.72-2.73A3.65,3.65,0,0,1,24.39,3.88Z" transform="translate(-3.52 -1)"/><g class="cls-2"><g class="cls-68"><g class="cls-2"><path class="cls-13" d="M17.73,13.2l-1.37-.74-.1-.07,1.37.74.1.07" transform="translate(-3.52 -1)"/></g></g></g><g class="cls-2"><g class="cls-69"><g class="cls-2"><path class="cls-13" d="M17.63,13.13l-1.37-.74a.66.66,0,0,1-.19-.51,1.81,1.81,0,0,1,.05-.36c0-.14.06-.27.1-.41l1.37.75c0,.13-.07.27-.1.41a1.22,1.22,0,0,0,0,.35.63.63,0,0,0,.19.51" transform="translate(-3.52 -1)"/></g></g></g><g class="cls-2"><g class="cls-70"><g class="cls-2"><path class="cls-13" d="M17.59,11.86l-1.37-.75q.06-.21.12-.45a2.45,2.45,0,0,0,0-.43c0-.24-.06-.4-.18-.47l1.37.75c.12.06.18.22.18.47a1.7,1.7,0,0,1-.05.42c0,.16-.07.31-.11.46" transform="translate(-3.52 -1)"/></g></g></g><g class="cls-2"><g class="cls-71"><g class="cls-2"><path class="cls-10" d="M17.75,9.72,16.39,9a.7.7,0,0,1,.29,0l1.37.74a1,1,0,0,0-.3,0" transform="translate(-3.52 -1)"/><path class="cls-9" d="M18.05,9.73,16.68,9l.1,0,1.37.74-.1,0" transform="translate(-3.52 -1)"/><path class="cls-8" d="M18.15,9.77,16.78,9h0l1.37.74h0" transform="translate(-3.52 -1)"/></g></g></g><g class="cls-2"><g class="cls-72"><g class="cls-2"><path class="cls-5" d="M15.53,12.06l-1.37-.75a10.07,10.07,0,0,1,.57-.91l1.37.75a8.84,8.84,0,0,0-.57.91" transform="translate(-3.52 -1)"/><path class="cls-4" d="M16.1,11.15l-1.37-.75a7.45,7.45,0,0,1,.53-.67l0-.06,1.37.75-.05.05a7.58,7.58,0,0,0-.52.68" transform="translate(-3.52 -1)"/><path class="cls-11" d="M16.67,10.42,15.3,9.67l.26-.26,1.37.75a1.6,1.6,0,0,0-.26.26" transform="translate(-3.52 -1)"/><path class="cls-8" d="M16.93,10.16l-1.37-.75a1.81,1.81,0,0,1,.23-.18l1.37.74a2.11,2.11,0,0,0-.23.19" transform="translate(-3.52 -1)"/><path class="cls-9" d="M17.16,10l-1.37-.74A1.49,1.49,0,0,1,16,9.09l1.37.74-.24.14" transform="translate(-3.52 -1)"/><path class="cls-10" d="M17.4,9.83,16,9.09A1.24,1.24,0,0,1,16.39,9l1.36.74a1.75,1.75,0,0,0-.35.11" transform="translate(-3.52 -1)"/></g></g></g><g class="cls-2"><g class="cls-73"><g class="cls-2"><path class="cls-13" d="M14.33,13.48,13,12.74a2.48,2.48,0,0,1,.14-.44l.15-.43c.09-.29.18-.57.25-.83,0,0,0-.09,0-.14a4.53,4.53,0,0,0,.19-1.11l1.36.75a4,4,0,0,1-.18,1.1.83.83,0,0,0,0,.15c-.07.25-.16.53-.26.82a4.59,4.59,0,0,1-.15.44,3.14,3.14,0,0,0-.13.43" transform="translate(-3.52 -1)"/></g></g></g><g class="cls-2"><g class="cls-74"><g class="cls-2"><path class="cls-11" d="M13.87,13.21l-1.37-.75a1.07,1.07,0,0,0,.18-.19l1.37.74-.18.2" transform="translate(-3.52 -1)"/><path class="cls-4" d="M14.05,13l-1.37-.74a5.32,5.32,0,0,0,.37-.46l1.37.74a5.72,5.72,0,0,1-.37.46" transform="translate(-3.52 -1)"/><path class="cls-5" d="M14.42,12.55l-1.37-.74a5,5,0,0,0,.35-.58l1.37.74a4.69,4.69,0,0,1-.35.58" transform="translate(-3.52 -1)"/><path class="cls-6" d="M14.77,12l-1.37-.74a1.14,1.14,0,0,0,.1-.19l1.37.75-.1.18" transform="translate(-3.52 -1)"/></g></g></g><path class="cls-24" d="M17.75,9.72a.6.6,0,0,1,.6.22,1.22,1.22,0,0,1,.2.71,2.63,2.63,0,0,1-.07.49,5.81,5.81,0,0,1-.18.56l-.15.46a1.58,1.58,0,0,0,0,.38c0,.28.1.41.32.38h0a1.22,1.22,0,0,0,.73-.61,8.87,8.87,0,0,0,.75-1.39l0,0c0,.12,0,.23,0,.33-.5,1.23-1.09,1.89-1.77,2a.65.65,0,0,1-.55-.13.63.63,0,0,1-.19-.51,1.22,1.22,0,0,1,0-.35c0-.14.06-.28.1-.41s.08-.3.11-.46a1.7,1.7,0,0,0,.05-.42c0-.37-.14-.54-.42-.5a1.42,1.42,0,0,0-.85.57,8.22,8.22,0,0,0-.8,1.13c-.23.42-.49.9-.79,1.47a.73.73,0,0,1-.33,0,.39.39,0,0,1-.23-.16,3.14,3.14,0,0,1,.13-.43,4.59,4.59,0,0,0,.15-.44c.1-.29.19-.57.26-.82a.83.83,0,0,1,0-.15,4,4,0,0,0,.18-1.1,1.09,1.09,0,0,1,.22-.2.66.66,0,0,1,.28-.11c.19,0,.29.06.29.26a3.5,3.5,0,0,1-.11.62c-.06.29-.14.62-.24,1a9.19,9.19,0,0,1,1.09-1.59A2,2,0,0,1,17.75,9.72Z" transform="translate(-3.52 -1)"/><g class="cls-2"><g class="cls-75"><g class="cls-2"><path class="cls-4" d="M15.09,10.54l-1.36-.75,0,0,1.37.74,0,0" transform="translate(-3.52 -1)"/><path class="cls-11" d="M15.12,10.51l-1.37-.74.07-.08,1.37.75-.07.07" transform="translate(-3.52 -1)"/><path class="cls-8" d="M15.19,10.44l-1.37-.75.11-.08,1.37.74-.11.09" transform="translate(-3.52 -1)"/><path class="cls-9" d="M15.3,10.35l-1.37-.74h0l.12-.07,1.37.75-.12.06h0" transform="translate(-3.52 -1)"/><path class="cls-10" d="M15.43,10.28l-1.37-.75.16,0h.14l1.37.74h-.14a.3.3,0,0,0-.16,0" transform="translate(-3.52 -1)"/><path class="cls-9" d="M15.73,10.23l-1.37-.74h0l1.37.74h0" transform="translate(-3.52 -1)"/><polyline class="cls-8" points="12.25 9.25 10.88 8.5 10.89 8.51 12.26 9.25 12.25 9.25"/></g></g></g><g class="cls-2"><g class="cls-76"><g class="cls-2"><path class="cls-8" d="M12.05,13.92l-1.37-.74h0l1.37.74h0" transform="translate(-3.52 -1)"/><path class="cls-9" d="M12.07,13.93l-1.37-.74.11,0,1.37.74-.11,0" transform="translate(-3.52 -1)"/><path class="cls-10" d="M12.18,14l-1.37-.74a1.11,1.11,0,0,0,.37,0,1.48,1.48,0,0,0,.48-.15l1.37.74a1.48,1.48,0,0,1-.48.15.89.89,0,0,1-.37,0" transform="translate(-3.52 -1)"/><path class="cls-9" d="M13,13.83l-1.37-.74A2.27,2.27,0,0,0,12,12.9l1.36.74a1.86,1.86,0,0,1-.33.19" transform="translate(-3.52 -1)"/><path class="cls-8" d="M13.36,13.64,12,12.9l.33-.27,1.36.75a2.5,2.5,0,0,1-.33.26" transform="translate(-3.52 -1)"/><path class="cls-11" d="M13.69,13.38l-1.36-.75.17-.17,1.37.75-.18.17" transform="translate(-3.52 -1)"/></g></g></g><g class="cls-2"><g class="cls-77"><g class="cls-2"><path class="cls-13" d="M14,10.09l-1.37-.75a.26.26,0,0,0-.05-.19l0,0,1.37.75,0,0a.32.32,0,0,1,0,.2" transform="translate(-3.52 -1)"/></g></g></g><g class="cls-2"><g class="cls-78"><g class="cls-2"><path class="cls-8" d="M12.75,11.86l-1.36-.74c.09-.08.19-.15.28-.24l1.37.75-.29.23" transform="translate(-3.52 -1)"/><path class="cls-11" d="M13,11.63l-1.37-.75c.12-.11.23-.22.34-.34l1.37.75-.34.34" transform="translate(-3.52 -1)"/><path class="cls-4" d="M13.38,11.29,12,10.54l.22-.27,0-.06,1.37.75,0,.06-.22.27" transform="translate(-3.52 -1)"/><path class="cls-5" d="M13.64,11l-1.37-.75a1.37,1.37,0,0,0,.13-.2l1.36.75a1.51,1.51,0,0,1-.12.2" transform="translate(-3.52 -1)"/><path class="cls-6" d="M13.76,10.76,12.4,10a1.89,1.89,0,0,0,.09-.21l1.37.74-.1.22" transform="translate(-3.52 -1)"/><path class="cls-13" d="M13.86,10.54,12.49,9.8a1.25,1.25,0,0,0,.09-.46l1.37.75a1.2,1.2,0,0,1-.09.45" transform="translate(-3.52 -1)"/></g></g></g><g class="cls-2"><g class="cls-79"><g class="cls-2"><path class="cls-9" d="M11.81,12.48l-1.36-.75a4.06,4.06,0,0,0,.58-.35l1.37.74a5.5,5.5,0,0,1-.59.36" transform="translate(-3.52 -1)"/><path class="cls-8" d="M12.4,12.12,11,11.38l.36-.26,1.36.74-.35.26" transform="translate(-3.52 -1)"/></g></g></g><path class="cls-24" d="M13.87,13.21a5.58,5.58,0,0,0,1-1.42c-.07.25-.16.53-.26.82a4.59,4.59,0,0,1-.72.9,2.85,2.85,0,0,1-1.57.83,1.12,1.12,0,0,1-1-.23,1.26,1.26,0,0,1-.33-.93,3.47,3.47,0,0,1,.42-1.52,5.52,5.52,0,0,1,1.06-1.46,2.34,2.34,0,0,1,1.25-.71c.44-.06.65.14.65.62a1.87,1.87,0,0,1-.39,1.1,4,4,0,0,1-1,.95,4.63,4.63,0,0,1-1.24.55,2.7,2.7,0,0,0,0,.41,1.12,1.12,0,0,0,.19.68.67.67,0,0,0,.65.18A2.39,2.39,0,0,0,13.87,13.21Zm-1.59-1.89a4.64,4.64,0,0,0-.47,1.16,6.31,6.31,0,0,0,.94-.62A4.23,4.23,0,0,0,13.6,11a1.63,1.63,0,0,0,.35-.93.32.32,0,0,0,0-.2s-.09-.05-.17,0a1.34,1.34,0,0,0-.73.46,4.76,4.76,0,0,0-.72,1" transform="translate(-3.52 -1)"/><g class="cls-2"><g class="cls-80"><g class="cls-2"><path class="cls-13" d="M11.55,14.24l-1.37-.74a.62.62,0,0,1-.18-.14,1.2,1.2,0,0,1-.34-.92,3,3,0,0,1,.21-1l1.37.75a2.9,2.9,0,0,0-.21,1,1.26,1.26,0,0,0,.33.93.8.8,0,0,0,.19.13" transform="translate(-3.52 -1)"/><path class="cls-6" d="M11.24,12.16l-1.37-.75c.06-.16.13-.32.21-.49a.64.64,0,0,1,.08-.14l1.36.74c0,.05,0,.1-.07.14a4.12,4.12,0,0,0-.21.5" transform="translate(-3.52 -1)"/><path class="cls-5" d="M11.52,11.52l-1.36-.74a3.72,3.72,0,0,1,.35-.58l1.37.74c-.13.19-.25.38-.36.58" transform="translate(-3.52 -1)"/><path class="cls-4" d="M11.88,10.94l-1.37-.74a5.45,5.45,0,0,1,.37-.47l1.36.75a5.19,5.19,0,0,0-.36.46" transform="translate(-3.52 -1)"/><path class="cls-11" d="M12.24,10.48l-1.36-.75.26-.27.12-.11,1.37.74-.12.11-.27.28" transform="translate(-3.52 -1)"/><path class="cls-8" d="M12.63,10.09l-1.37-.74.33-.27L13,9.83a2.5,2.5,0,0,0-.33.26" transform="translate(-3.52 -1)"/><path class="cls-9" d="M13,9.83l-1.37-.75a2.79,2.79,0,0,1,.33-.19l1.37.75a1.86,1.86,0,0,0-.33.19" transform="translate(-3.52 -1)"/><path class="cls-10" d="M13.29,9.64l-1.37-.75a1.68,1.68,0,0,1,.47-.14.8.8,0,0,1,.31,0l1.37.75a.79.79,0,0,0-.31,0,1.43,1.43,0,0,0-.47.15" transform="translate(-3.52 -1)"/><path class="cls-9" d="M14.07,9.5,12.7,8.75l.09,0,1.37.74-.09,0" transform="translate(-3.52 -1)"/><path class="cls-8" d="M14.16,9.53l-1.37-.74h0l1.37.75h0" transform="translate(-3.52 -1)"/></g></g></g></g><g class="cls-2"><g class="cls-2"><g class="cls-81"><g class="cls-2"><path class="cls-13" d="M10.21,11.56l-1.37-.74a1,1,0,0,0-.49-.93l1.37.74a1,1,0,0,1,.49.93" transform="translate(-3.52 -1)"/></g></g></g><g class="cls-2"><g class="cls-82"><g class="cls-2"><path class="cls-10" d="M5.94,14.88l-1.37-.74a6.32,6.32,0,0,0,1.88-.55l1.37.75a6.39,6.39,0,0,1-1.88.54" transform="translate(-3.52 -1)"/><path class="cls-9" d="M7.82,14.34l-1.37-.75.29-.14a7,7,0,0,0,.61-.37l1.37.74a4.62,4.62,0,0,1-.62.37l-.28.15" transform="translate(-3.52 -1)"/><path class="cls-8" d="M8.72,13.82l-1.37-.74a4.37,4.37,0,0,0,.46-.37l1.37.75a3.33,3.33,0,0,1-.46.36" transform="translate(-3.52 -1)"/><path class="cls-11" d="M9.18,13.46l-1.37-.75a3.14,3.14,0,0,0,.32-.31l1.37.74a3.22,3.22,0,0,1-.32.32" transform="translate(-3.52 -1)"/><path class="cls-4" d="M9.5,13.14,8.13,12.4l.15-.18.1-.14,1.37.74a.76.76,0,0,1-.11.14l-.14.18" transform="translate(-3.52 -1)"/><path class="cls-5" d="M9.75,12.82l-1.37-.74c.07-.11.14-.21.19-.31l1.37.74a2,2,0,0,1-.19.31" transform="translate(-3.52 -1)"/><path class="cls-6" d="M9.94,12.51l-1.37-.74a2.3,2.3,0,0,0,.15-.32l1.36.75a2.12,2.12,0,0,1-.14.31" transform="translate(-3.52 -1)"/><path class="cls-13" d="M10.08,12.2l-1.36-.75a2,2,0,0,0,.12-.63l1.37.74a2.15,2.15,0,0,1-.13.64" transform="translate(-3.52 -1)"/></g></g></g><g class="cls-2"><g class="cls-83"><g class="cls-2"><path class="cls-10" d="M8.28,10.18,6.91,9.44a4.12,4.12,0,0,1,1.31.07l1.37.75a4.09,4.09,0,0,0-1.31-.08" transform="translate(-3.52 -1)"/><path class="cls-9" d="M9.59,10.26,8.22,9.51a2.61,2.61,0,0,1,.37.14l1.37.74a1.78,1.78,0,0,0-.37-.13" transform="translate(-3.52 -1)"/><path class="cls-8" d="M10,10.39,8.59,9.65l.06,0,1.37.74-.06,0" transform="translate(-3.52 -1)"/></g></g></g><g class="cls-2"><g class="cls-84"><g class="cls-2"><path class="cls-13" d="M5.21,15.62l-1.37-.74,0,0,1.37.75h0" transform="translate(-3.52 -1)"/></g></g></g><g class="cls-2"><g class="cls-85"><g class="cls-2"><path class="cls-10" d="M5.2,14.93l-1.37-.75a3.6,3.6,0,0,0,.74,0l1.37.74a3.83,3.83,0,0,1-.74,0" transform="translate(-3.52 -1)"/></g></g></g><g class="cls-2"><g class="cls-86"><g class="cls-2"><path class="cls-13" d="M5.36,14.39,4,13.65l-.08-.05,1.37.74.07.05" transform="translate(-3.52 -1)"/></g></g></g><g class="cls-2"><g class="cls-87"><g class="cls-2"><path class="cls-10" d="M4.94,14.9l-1.37-.74.26,0,1.37.75-.26,0" transform="translate(-3.52 -1)"/></g></g></g><g class="cls-2"><g class="cls-88"><g class="cls-2"><path class="cls-13" d="M5.18,15.61l-1.37-.75a.68.68,0,0,1-.29-.66L4.88,15a.71.71,0,0,0,.3.66" transform="translate(-3.52 -1)"/></g></g></g><polygon class="cls-89" points="1.37 13.95 0 13.21 0.06 13.16 1.42 13.91 1.37 13.95"/><g class="cls-2"><g class="cls-90"><g class="cls-2"><path class="cls-13" d="M5.29,14.34,3.92,13.6a.43.43,0,0,1-.18-.36L5.11,14a.4.4,0,0,0,.18.36" transform="translate(-3.52 -1)"/></g></g></g><g class="cls-2"><g class="cls-91"><g class="cls-2"><path class="cls-13" d="M5.11,14l-1.37-.74a2.22,2.22,0,0,1,.07-.38l1.37.74a1.63,1.63,0,0,0-.07.38" transform="translate(-3.52 -1)"/></g></g></g><g class="cls-2"><g class="cls-92"><g class="cls-2"><path class="cls-13" d="M5.18,13.6l-1.37-.74c0-.16.07-.26.08-.3l1.37.74s0,.15-.08.3" transform="translate(-3.52 -1)"/></g></g></g><g class="cls-2"><g class="cls-93"><g class="cls-2"><path class="cls-10" d="M6.78,10.32,5.41,9.58A6.09,6.09,0,0,0,7,9.09l1.36.74a6,6,0,0,1-1.62.49" transform="translate(-3.52 -1)"/><path class="cls-9" d="M8.4,9.83,7,9.09a4.57,4.57,0,0,0,.71-.42l1.37.75a5,5,0,0,1-.72.41" transform="translate(-3.52 -1)"/><path class="cls-8" d="M9.12,9.42,7.75,8.67h0A1.79,1.79,0,0,0,8,8.47l1.37.74-.26.21h0" transform="translate(-3.52 -1)"/><path class="cls-11" d="M9.38,9.21,8,8.47a1.7,1.7,0,0,0,.19-.19L9.57,9l-.19.18" transform="translate(-3.52 -1)"/><path class="cls-4" d="M9.57,9,8.2,8.28l.14-.18,1.37.74L9.57,9" transform="translate(-3.52 -1)"/><path class="cls-5" d="M9.71,8.84,8.34,8.1a2.39,2.39,0,0,0,.13-.21l1.37.74a1.48,1.48,0,0,1-.13.21" transform="translate(-3.52 -1)"/><path class="cls-6" d="M9.84,8.63,8.47,7.89a1.23,1.23,0,0,0,.12-.26L10,8.37l-.12.26" transform="translate(-3.52 -1)"/><path class="cls-13" d="M10,8.37,8.59,7.63a2.52,2.52,0,0,0,.14-.79,1.15,1.15,0,0,0-.55-1.12l1.37.75a1.14,1.14,0,0,1,.54,1.11,2.47,2.47,0,0,1-.13.79" transform="translate(-3.52 -1)"/></g></g></g><g class="cls-2"><g class="cls-94"><g class="cls-2"><path class="cls-13" d="M5.26,13.3l-1.37-.74c.23-.83.57-2,1-3.34.21-.65.41-1.24.61-1.78l1.37.74c-.2.54-.4,1.13-.61,1.78-.45,1.4-.79,2.52-1,3.34" transform="translate(-3.52 -1)"/><path class="cls-6" d="M6.89,8.18,5.52,7.44c.23-.63.45-1.18.67-1.66l1.37.74c-.22.48-.44,1-.67,1.66" transform="translate(-3.52 -1)"/></g></g></g><g class="cls-2"><g class="cls-95"><g class="cls-2"><path class="cls-10" d="M7,6.44,5.61,5.7A4.57,4.57,0,0,1,6.9,5.35a3.73,3.73,0,0,1,1.43.06l1.37.75a3.92,3.92,0,0,0-1.43-.07A4.83,4.83,0,0,0,7,6.44" transform="translate(-3.52 -1)"/><path class="cls-9" d="M9.7,6.16,8.33,5.41l.29.1.11,0,1.37.75-.11,0a1.4,1.4,0,0,0-.29-.09" transform="translate(-3.52 -1)"/><path class="cls-8" d="M10.1,6.3,8.73,5.55l0,0,1.37.75,0,0" transform="translate(-3.52 -1)"/></g></g></g><g class="cls-2"><g class="cls-96"><g class="cls-2"><path class="cls-13" d="M5.94,7.31,4.58,6.57,4.5,6.52l1.37.74.07,0" transform="translate(-3.52 -1)"/></g></g></g><g class="cls-2"><g class="cls-97"><g class="cls-2"><path class="cls-9" d="M5.74,7.08,4.37,6.34a11.22,11.22,0,0,1,1-.53l1.36.74c-.29.14-.62.32-1,.53" transform="translate(-3.52 -1)"/><path class="cls-10" d="M6.73,6.55,5.37,5.81l.24-.11L7,6.44l-.25.11" transform="translate(-3.52 -1)"/></g></g></g><path class="cls-24" d="M8.28,10.18c1.62-.12,2.43.39,2.42,1.52a2.77,2.77,0,0,1-.79,1.91A6.14,6.14,0,0,1,8,15a6.7,6.7,0,0,1-2,.68,1.39,1.39,0,0,1-.89-.1.71.71,0,0,1-.3-.66l.06,0,.26,0a3.83,3.83,0,0,0,.74,0,6.37,6.37,0,0,0,2.16-.69A4.5,4.5,0,0,0,9.64,13a2.36,2.36,0,0,0,.57-1.4,1,1,0,0,0-.77-1,4.82,4.82,0,0,0-1.92,0l-.8.12c-.11.4-.27,1-.47,1.83-.15.62-.32,1.29-.51,2a.57.57,0,0,1-.45-.11A.4.4,0,0,1,5.11,14a1.63,1.63,0,0,1,.07-.38c0-.15.07-.25.08-.3.23-.82.57-1.94,1-3.34A35.89,35.89,0,0,1,7.56,6.52a3.85,3.85,0,0,0-1.25.68.55.55,0,0,1-.23.14.26.26,0,0,1-.21-.08.25.25,0,0,1-.13-.18A11.49,11.49,0,0,1,7,6.44a4.83,4.83,0,0,1,1.29-.35A3.54,3.54,0,0,1,10,6.25a1.24,1.24,0,0,1,.74,1.34A2.1,2.1,0,0,1,10,9.24,4.86,4.86,0,0,1,8.28,10.18Zm-1.5.14a5.57,5.57,0,0,0,2.34-.9,2.16,2.16,0,0,0,1-1.84c0-1-.59-1.41-1.8-1.25l-.2,0a27.61,27.61,0,0,0-1.31,3.94" transform="translate(-3.52 -1)"/><g class="cls-2"><g class="cls-98"><g class="cls-2"><path class="cls-13" d="M5.87,7.26,4.5,6.52c-.09-.07-.13-.13-.13-.18l1.37.74a.25.25,0,0,0,.13.18" transform="translate(-3.52 -1)"/></g></g></g></g><g class="cls-2"><g class="cls-2"><g class="cls-99"><g class="cls-2"><path class="cls-13" d="M32.36,6,31,5.27l0,0L32.33,6l0,0" transform="translate(-3.52 -1)"/></g></g></g><g class="cls-2"><g class="cls-100"><g class="cls-2"><path class="cls-13" d="M32.33,6,31,5.25A.28.28,0,0,1,30.84,5a.4.4,0,0,1,0-.15l1.37.74a.4.4,0,0,0,0,.15.3.3,0,0,0,.12.27" transform="translate(-3.52 -1)"/><path class="cls-6" d="M32.24,5.58l-1.37-.74,0-.07,1.37.75a.09.09,0,0,0,0,.06" transform="translate(-3.52 -1)"/><path class="cls-5" d="M32.27,5.52,30.9,4.77l0-.06,1.37.74a.25.25,0,0,0,0,.07" transform="translate(-3.52 -1)"/><path class="cls-4" d="M32.31,5.45l-1.37-.74a.18.18,0,0,1,0-.07l1.37.74,0,.07" transform="translate(-3.52 -1)"/><path class="cls-11" d="M32.36,5.38,31,4.64l.09-.09,1.37.74-.09.09" transform="translate(-3.52 -1)"/><path class="cls-8" d="M32.45,5.29l-1.37-.74h0a.31.31,0,0,1,.11-.09l1.37.74-.11.09h0" transform="translate(-3.52 -1)"/><path class="cls-9" d="M32.58,5.19l-1.37-.74a.51.51,0,0,1,.16-.09l1.37.74-.16.09" transform="translate(-3.52 -1)"/><path class="cls-10" d="M32.74,5.1l-1.37-.74a.73.73,0,0,1,.25-.08.48.48,0,0,1,.17,0L33.15,5H33a1,1,0,0,0-.25.08" transform="translate(-3.52 -1)"/><path class="cls-9" d="M33.15,5l-1.36-.75,0,0,1.37.75-.05,0" transform="translate(-3.52 -1)"/><polyline class="cls-8" points="29.69 4.05 28.32 3.31 28.33 3.31 29.7 4.05 29.69 4.05"/></g></g></g><path class="cls-24" d="M32.33,6a.3.3,0,0,1-.12-.27.6.6,0,0,1,.26-.45A1,1,0,0,1,33,5c.23,0,.35.08.35.32a.64.64,0,0,1-.22.44.79.79,0,0,1-.48.27A.39.39,0,0,1,32.33,6Z" transform="translate(-3.52 -1)"/></g></svg>